<svg xmlns="http://www.w3.org/2000/svg" viewBox="0 0 500 500"><g id="freepik--background-complete--inject-2"><path d="M434.64,225.12l-2.9,1.22a2.67,2.67,0,0,0-3.57-1.42,2.55,2.55,0,0,0-1.64,2.45,2.81,2.81,0,0,0,1.19,2.27c.83.6,2.22.88,4-.28l2.74,6.53-2.86,1.21L430,233.27a6.07,6.07,0,0,1-6.32-3.78c-1.78-4.24,1.61-6.82,3.24-7.5C428.18,221.46,432.54,220,434.64,225.12Z" style="fill:#e0e0e0"></path><rect x="432.61" y="237.73" width="3.15" height="2.95" transform="translate(927.12 291.58) rotate(157.21)" style="fill:#e0e0e0"></rect><path d="M262.67,47.07l4.9.75a4.2,4.2,0,0,0,3.63,4.83,4,4,0,0,0,4.22-1.94,4.45,4.45,0,0,0,.26-4c-.62-1.49-2.25-3-5.64-2.94l1.68-11,4.84.74-1,6.46A9.56,9.56,0,0,1,281,50.19c-1.09,7.16-7.77,7.84-10.52,7.42C268.34,57.29,261.26,55.69,262.67,47.07Z" style="fill:#f5f5f5"></path><rect x="272.38" y="26.2" width="4.97" height="4.64" transform="translate(7.44 -41.11) rotate(8.67)" style="fill:#f5f5f5"></rect><path d="M369.22,238.66l6.29,3.07s-2.58,5.29,2.87,8.06a5.66,5.66,0,0,0,6.51-.84,6.25,6.25,0,0,0,2-5.32c-.2-2.28-1.76-5-6.37-6.34l6.93-14.19,6.22,3-4.06,8.31s7.63,6.51,2.93,16.13c-4.49,9.2-13.78,7.31-17.32,5.59C372.56,254.85,363.68,249.7,369.22,238.66Z" style="fill:#f5f5f5"></path><rect x="389.98" y="215.48" width="7.03" height="6.56" transform="translate(135.84 -150.44) rotate(26.02)" style="fill:#f5f5f5"></rect><path d="M228.66,69.06,222.42,71s-1.6-5.24-7.07-3.68A5.26,5.26,0,0,0,211.44,72a5.85,5.85,0,0,0,2,4.92c1.59,1.42,4.39,2.31,8.37.28l4.29,14.08-6.18,1.88-2.5-8.25a12.59,12.59,0,0,1-12.24-9.14C202.38,66.63,209.92,62,213.42,61,216.1,60.14,225.43,58,228.66,69.06Z" style="fill:#e0e0e0"></path><rect x="221.46" y="94.98" width="6.55" height="6.11" transform="matrix(-0.96, 0.29, -0.29, -0.96, 468.27, 126.43)" style="fill:#e0e0e0"></rect><path d="M46.4,381.89a32.42,32.42,0,0,0-13.86-4.78c-2.27-.23-4.74-.16-6.56,1.21a1.34,1.34,0,0,0-.67,1.2,1.43,1.43,0,0,0,.64.82,19.84,19.84,0,0,0,20.45,1.55" style="fill:#e0e0e0"></path><path d="M46,381.49a67.69,67.69,0,0,1-8.95-7.87,22.62,22.62,0,0,1-5.61-10.38,4.2,4.2,0,0,1,.44-3.48c7.14,5.58,12.74,12.78,14.12,21.73" style="fill:#e0e0e0"></path><path d="M46.33,381.83a32.44,32.44,0,0,1,.16-11.75,15.93,15.93,0,0,1,6.26-9.7c1.24,2.88.71,6.2-.16,9.21a45.06,45.06,0,0,1-6.21,13.08" style="fill:#e0e0e0"></path><path d="M53.32,394.37c-4.24.51-7.94,2.75-11.11,5.62a21,21,0,0,0-6.36,10.92c4.16-.26,7.7-3.19,10.26-6.49s4.34-6.91,7.15-10" style="fill:#e0e0e0"></path><path d="M54.84,396.37A27.4,27.4,0,0,1,58,370.44c2.42,8.6,1.53,18.33-3.17,25.93" style="fill:#e0e0e0"></path><path d="M64.09,407.38a19.86,19.86,0,0,0-19,10.91,1.47,1.47,0,0,0-.13,1.49,1.42,1.42,0,0,0,1.26.37c3.73-.24,7-2.49,9.78-5s5.11-5.52,8.13-7.73" style="fill:#e0e0e0"></path><path d="M63.79,406.78a35.28,35.28,0,0,1-.35-19.72c.69-2.54,1.86-5.21,4.21-6.4a.78.78,0,0,1,.64-.12.85.85,0,0,1,.41.48,11.86,11.86,0,0,1,1,5.65,35.75,35.75,0,0,1-.89,5.73c-.74,3.5-1.13,7.26-3,10.28a21.38,21.38,0,0,0-1.22,2.26c-.36.77-.37,1-.7,1.65" style="fill:#e0e0e0"></path><path d="M88.26,410.43c-1.81-6.9.11-15.26,4.46-20.91.32-.42.74-.86,1.26-.82.8.08,1,1.14,1,1.95a37.77,37.77,0,0,1-6.69,19.78" style="fill:#e0e0e0"></path><path d="M90.47,411.93a30.39,30.39,0,0,0,25-5.07,20.24,20.24,0,0,0-13.51-1.66c-4.51,1-8.64,3.05-11.44,6.73" style="fill:#e0e0e0"></path><path d="M92.33,407.34C97,399.69,106,394.7,115,394.25c-1,3.64-4,6.47-7.41,8.19s-7.16,2.45-10.87,3.18c-1.45.28-3.44.59-4.37,1.72" style="fill:#e0e0e0"></path><path d="M88.73,385.06a65.83,65.83,0,0,0,2.89-13.26A22,22,0,0,0,89,358.68c-4.38,8.48-4.83,18.39-.39,26.84" style="fill:#e0e0e0"></path><path d="M103.48,377.61c5.13-9.32,15.58-16.76,26.16-17.8-4.08,10.16-15.21,18-26.16,17.8" style="fill:#e0e0e0"></path><path d="M100.26,379.43c7.64,1.17,14.15,6.05,21.3,9a9.59,9.59,0,0,0,4.81.92,3.77,3.77,0,0,0,2.36-6.67,10.33,10.33,0,0,0-3.5-2.12c-7.78-3.24-16.12-3.32-24.32-1.36" style="fill:#e0e0e0"></path><path d="M95.83,384.79c1.73.5,2.33,1.39,3.7,2.56a39.84,39.84,0,0,0,16.15,8.3c.61.15,1.42.21,1.73-.35s-.07-1.07-.42-1.51a22.27,22.27,0,0,0-9.75-6.62c-3.73-1.38-7-3.06-11.41-2.7" style="fill:#e0e0e0"></path><path d="M90.84,352.41a30.62,30.62,0,0,0,23.44,8,1.59,1.59,0,0,0,1.06-.39c.59-.64-.11-1.63-.8-2.17-6.89-5.37-15.24-7.59-23.7-5.42" style="fill:#e0e0e0"></path><path d="M96.76,350.25A32.67,32.67,0,0,1,126,345.42a23.23,23.23,0,0,1-13.93,6.12,44.45,44.45,0,0,1-15.31-1.29" style="fill:#e0e0e0"></path><path d="M94.41,335.37c-.68-6.88-.24-12.31-.72-19.22,0-.55-.15-1.21-.67-1.41-.72-.28-1.32.6-1.55,1.34a22,22,0,0,0,2.93,19.14" style="fill:#e0e0e0"></path><path d="M93.91,336.13a40.62,40.62,0,0,0,11.4-11.08c2.25-3.07,4.14-6.76,3.63-10.54a10.93,10.93,0,0,0-8.22,4.08A23.1,23.1,0,0,0,96.53,327c-.91,3-1.55,6.13-2.62,9.11" style="fill:#e0e0e0"></path><path d="M105.11,333a92,92,0,0,0,28-16.53c-3.35-1.35-7.18-.55-10.53.81A33.18,33.18,0,0,0,105,332.94" style="fill:#e0e0e0"></path><path d="M97.06,339.89c5.18.56,10.43.93,15.57.07s9.81-2.84,14.53-4.82a1.77,1.77,0,0,0,1-.75,1.14,1.14,0,0,0-.36-1.25,3,3,0,0,0-1.24-.58c-5.12-1.43-10.66-.76-15.7.94a72.49,72.49,0,0,0-13.79,6.39" style="fill:#e0e0e0"></path><path d="M67.51,352.65c-3.53-7.13-3.3-15.45-.25-22.79,2.14,3.27,2.41,7.43,2,11.33s-1.57,7.9-1.65,11.81" style="fill:#e0e0e0"></path><path d="M53.4,345.53a31.81,31.81,0,0,0-23.62,10.06,22.06,22.06,0,0,0,12.94-2.39,66.13,66.13,0,0,0,11.08-7.42" style="fill:#e0e0e0"></path><path d="M43.92,342.36c-4.31-.35-8.46-.88-12.61.39a15.1,15.1,0,0,0-9.61,8.15,22.8,22.8,0,0,0,11.82-2.24,67.29,67.29,0,0,0,10.4-6.3" style="fill:#e0e0e0"></path><path d="M58,342.51c-3.88-2.55-7.86-5.13-12.38-6.19s-9.75-.27-12.9,3.13c3.65,2.15,8.09,2.4,12.33,2.4s9.44-.05,13.44,1.36" style="fill:#e0e0e0"></path><path d="M58,342.71c-6.63-6.51-9.14-18.21-6.47-27.12A41.34,41.34,0,0,1,58,342.71" style="fill:#e0e0e0"></path><path d="M76.22,324.26c1.25-2.91,2.13-6,3.26-8.92a25.61,25.61,0,0,1,4.63-8.23,12.19,12.19,0,0,1,8.22-4.25,33,33,0,0,1-16,21.44" style="fill:#e0e0e0"></path><path d="M72.92,328.1c-2.07-2.85-4.46-6.71-7.27-8.84s-6.46-3.42-9.89-2.6A23,23,0,0,0,72.92,328.1" style="fill:#e0e0e0"></path><path d="M73.58,324.49a49.53,49.53,0,0,1-3.27-10.59A16.56,16.56,0,0,1,72,303.12c3.64,6.89,4.81,14.27,1.8,21.45" style="fill:#e0e0e0"></path><path d="M76.26,303.12c2.06-6.82,8.31-11.84,15-14.15a5.59,5.59,0,0,1,2.64-.39,2.28,2.28,0,0,1,2,1.62c.24,1.16-.72,2.2-1.62,3a51.26,51.26,0,0,1-18,9.95" style="fill:#e0e0e0"></path><path d="M76.33,297.54c.26-4.4.54-8.86,2-13s4.19-8.08,8.2-9.9c.68,4.44-1.28,8.86-3.64,12.69s-5.22,7.43-6.64,11.69" style="fill:#e0e0e0"></path><path d="M76.22,300.57c-1.7-5-1.88-11.29-4.86-15.62-2.08-3-5.41-5.09-7.2-8.3a12.61,12.61,0,0,0,.42,9.42,27.08,27.08,0,0,0,5.5,7.89c2.21,2.35,4.09,4.12,6.14,6.61" style="fill:#e0e0e0"></path><path d="M76.26,447c-.14,0-.25-33.17-.26-74.08s.09-74.08.22-74.08.25,33.16.26,74.08S76.39,447,76.26,447Z" style="fill:#e0e0e0"></path><path d="M105.24,347.64a6.82,6.82,0,0,1-1.24.47l-3.44,1.16c-2.89,1-6.87,2.41-11.18,4.18s-8.3,3.32-10.6,5.31a7.87,7.87,0,0,0-2.13,2.82c-.33.77-.38,1.25-.43,1.24a1.16,1.16,0,0,1,0-.35,4.53,4.53,0,0,1,.24-1,7.49,7.49,0,0,1,2.08-3,18.61,18.61,0,0,1,4.6-2.85c1.83-.86,3.87-1.75,6-2.64,4.33-1.78,8.33-3.16,11.26-4.06,1.46-.46,2.65-.8,3.48-1A7,7,0,0,1,105.24,347.64Z" style="fill:#e0e0e0"></path><path d="M114.74,324.3s-.11.14-.35.38l-1.06,1c-1,.89-2.33,2.12-4,3.61L96.13,341.06c-5.16,4.6-9.62,9-12.72,12.29-1.54,1.66-2.76,3-3.59,4l-1,1.1a2.71,2.71,0,0,1-.35.36s.08-.16.28-.43.49-.66.89-1.15c.79-1,2-2.4,3.5-4.09A168.47,168.47,0,0,1,95.81,340.7c5.18-4.58,9.9-8.7,13.32-11.67l4.08-3.49,1.12-.94A2.2,2.2,0,0,1,114.74,324.3Z" style="fill:#e0e0e0"></path><path d="M90.56,345.73c-.14-.06.94-2.55,2-5.7s1.59-5.8,1.73-5.78A19.62,19.62,0,0,1,93,340.19a39.23,39.23,0,0,1-1.61,4A6.08,6.08,0,0,1,90.56,345.73Z" style="fill:#e0e0e0"></path><path d="M76.29,365.81a5.79,5.79,0,0,1-.8-.92l-2-2.62c-1.71-2.21-4.08-5.26-6.73-8.61s-5.09-6.34-6.86-8.51l-2.08-2.57a6.46,6.46,0,0,1-.72-1,6,6,0,0,1,.86.86c.53.58,1.29,1.43,2.2,2.49,1.84,2.11,4.32,5.08,7,8.43s5,6.43,6.62,8.7c.83,1.13,1.48,2.06,1.92,2.71A6.61,6.61,0,0,1,76.29,365.81Z" style="fill:#e0e0e0"></path><path d="M69.93,357.65a11.66,11.66,0,0,1-2.66-5,14.22,14.22,0,0,1-.61-5l.22,0c-.1.38-.17.59-.21.58s0-.22,0-.62l.21,0a22.18,22.18,0,0,0,.85,4.89A38,38,0,0,0,69.93,357.65Z" style="fill:#e0e0e0"></path><path d="M61.72,347.33a8.58,8.58,0,0,0-1.85-1.08,12.41,12.41,0,0,0-5.17-.41,31.94,31.94,0,0,0-5.19.84,16.29,16.29,0,0,1-2.14.51,8,8,0,0,1,2.05-.84,24.09,24.09,0,0,1,5.25-1,11.14,11.14,0,0,1,5.32.58A3.23,3.23,0,0,1,61.72,347.33Z" style="fill:#e0e0e0"></path><path d="M59.78,344.83c0,.07-1.08-.44-2.85-1a28.66,28.66,0,0,0-14.35-1.09c-1.84.33-2.95.67-3,.59a2.74,2.74,0,0,1,.75-.32,15.8,15.8,0,0,1,2.15-.6,25.3,25.3,0,0,1,7.35-.52,25.84,25.84,0,0,1,7.19,1.62,17.51,17.51,0,0,1,2,.93A2.74,2.74,0,0,1,59.78,344.83Z" style="fill:#e0e0e0"></path><path d="M76.22,334.25A57.93,57.93,0,0,1,74.15,327a59,59,0,0,1-1.62-7.34,58.76,58.76,0,0,1,2.08,7.22A58.27,58.27,0,0,1,76.22,334.25Z" style="fill:#e0e0e0"></path><path d="M76.35,334.25a34.83,34.83,0,0,0-2.3-4.32,19.54,19.54,0,0,0-3.39-3.5,3.18,3.18,0,0,1,1.31.68,10.23,10.23,0,0,1,2.47,2.55A9.38,9.38,0,0,1,76.35,334.25Z" style="fill:#e0e0e0"></path><path d="M76.26,429.32c-.06,0-.15-.8-.53-2.21a31.75,31.75,0,0,0-2.21-5.74A80.28,80.28,0,0,0,61.76,404.8c-2.63-3-5.18-5.83-7.34-8.54a58.09,58.09,0,0,1-5.24-7.56,35.32,35.32,0,0,1-2.65-5.62c-.25-.69-.42-1.23-.52-1.6a3.07,3.07,0,0,1-.14-.57s.29.75.83,2.11a41.9,41.9,0,0,0,2.77,5.51A64.5,64.5,0,0,0,54.76,396c2.18,2.68,4.73,5.49,7.36,8.5,5.31,6,9.47,12,11.7,16.73a28.54,28.54,0,0,1,2.09,5.85,16.06,16.06,0,0,1,.3,1.66A3.28,3.28,0,0,1,76.26,429.32Z" style="fill:#e0e0e0"></path><path d="M102.45,399.73a12.19,12.19,0,0,1-1.37.77,30.44,30.44,0,0,0-3.56,2.36,39.3,39.3,0,0,0-4.68,4.26c-1.64,1.74-3.33,3.75-5.06,5.91-3.45,4.33-6.67,8.16-8.61,11.22-1,1.51-1.69,2.79-2.16,3.69a13.18,13.18,0,0,1-.75,1.38s0-.14.12-.39.24-.62.46-1.08a35.6,35.6,0,0,1,2-3.79,121.2,121.2,0,0,1,8.52-11.33c1.73-2.16,3.44-4.18,5.11-5.91a38.15,38.15,0,0,1,4.79-4.23,25.35,25.35,0,0,1,3.68-2.25c.45-.23.83-.37,1.07-.47A1.39,1.39,0,0,1,102.45,399.73Z" style="fill:#e0e0e0"></path><path d="M103,409.33a18.9,18.9,0,0,1-2.9.42,37.71,37.71,0,0,0-6.88,1.36A20.42,20.42,0,0,0,87,414.34c-1.42,1.1-2.09,2-2.16,2a2.51,2.51,0,0,1,.43-.66,11,11,0,0,1,1.51-1.55A18.86,18.86,0,0,1,93,410.65a30.92,30.92,0,0,1,7-1.23A16.76,16.76,0,0,1,103,409.33Z" style="fill:#e0e0e0"></path><path d="M85.71,415.24c-.15-.09,1.15-2.08,2.17-4.77s1.17-5.09,1.34-5.06a4.44,4.44,0,0,1,0,1.56,17.26,17.26,0,0,1-.85,3.66A17.81,17.81,0,0,1,86.65,414,4.83,4.83,0,0,1,85.71,415.24Z" style="fill:#e0e0e0"></path><path d="M110.93,374a2.07,2.07,0,0,1-.46.24l-1.37.62c-.59.26-1.32.58-2.13,1s-1.78.85-2.78,1.45l-1.58.9c-.55.32-1.09.69-1.67,1.05-1.17.71-2.34,1.58-3.58,2.47a68.47,68.47,0,0,0-7.48,6.58A67.18,67.18,0,0,0,83.55,396c-.84,1.27-1.67,2.47-2.34,3.66-.34.59-.7,1.15-1,1.71L79.37,403c-.56,1-1,2-1.36,2.82s-.7,1.57-.94,2.17l-.57,1.39a3.6,3.6,0,0,1-.23.47,1.76,1.76,0,0,1,.14-.51l.49-1.42c.21-.61.48-1.36.86-2.21s.76-1.83,1.31-2.86l.82-1.64c.29-.57.64-1.13,1-1.73.65-1.21,1.48-2.42,2.32-3.72a59.34,59.34,0,0,1,13.9-14.38c1.27-.89,2.45-1.75,3.64-2.45.58-.36,1.14-.73,1.69-1L104,377c1-.58,2-1,2.82-1.4s1.57-.71,2.18-.94l1.4-.54A2.12,2.12,0,0,1,110.93,374Z" style="fill:#e0e0e0"></path><path d="M90.2,387.86a3.33,3.33,0,0,1,1.14-1.7,7.17,7.17,0,0,1,4.59-1.76,12.4,12.4,0,0,1,4.84.94,6.83,6.83,0,0,1,1.83.89,11.06,11.06,0,0,1-1.94-.57,14.7,14.7,0,0,0-4.71-.78,7.42,7.42,0,0,0-4.39,1.54A12.61,12.61,0,0,0,90.2,387.86Z" style="fill:#e0e0e0"></path><path d="M87.1,391.05a17,17,0,0,0,1.31-4.24,18,18,0,0,0-.29-4.43,2.86,2.86,0,0,1,.53,1.24,8.75,8.75,0,0,1-.74,6.35C87.51,390.71,87.15,391.09,87.1,391.05Z" style="fill:#e0e0e0"></path><path d="M53.35,434.07c.71,12.68,4.53,25.57,10.41,38.61H89.31c5.6-12.91,9.16-25.78,9.79-38.61Z" style="fill:#e0e0e0"></path><path d="M95,454.58c0,.14-8.41.24-18.79.24s-18.79-.1-18.79-.24,8.41-.23,18.79-.23S95,454.45,95,454.58Z" style="fill:#fafafa"></path><path d="M94.39,459.18c0,.13-7.89.24-17.62.24s-17.61-.11-17.61-.24,7.88-.24,17.61-.24S94.39,459,94.39,459.18Z" style="fill:#fafafa"></path><path d="M64.17,442.4a72.27,72.27,0,0,1,0,11.77,72.27,72.27,0,0,1,0-11.77Z" style="fill:#fafafa"></path><path d="M77.86,442.4a77.39,77.39,0,0,1,0,12.18,77.39,77.39,0,0,1,0-12.18Z" style="fill:#fafafa"></path><path d="M90.71,442.29a80.59,80.59,0,0,1,0,12.43,80.59,80.59,0,0,1,0-12.43Z" style="fill:#fafafa"></path><path d="M98.29,442.4c0,.13-9.87.24-22,.24s-22-.11-22-.24,9.87-.24,22-.24S98.29,442.26,98.29,442.4Z" style="fill:#fafafa"></path><rect x="449.14" y="42.02" width="6.46" height="140.11" style="fill:#e0e0e0"></rect><rect x="355.46" y="43.09" width="92.69" height="137.97" rx="0.09" style="fill:#f5f5f5"></rect><path d="M449.14,182.13H354.48a.09.09,0,0,1-.09-.09V42.11a.09.09,0,0,1,.09-.09h94.66a.09.09,0,0,1,.09.09V182A.09.09,0,0,1,449.14,182.13ZM356.63,180H447a.09.09,0,0,0,.09-.09V44.26a.1.1,0,0,0-.09-.1H356.63a.11.11,0,0,0-.1.1V179.89A.1.1,0,0,0,356.63,180Z" style="fill:#ebebeb"></path><rect x="364.79" y="51.6" width="74.19" height="120.85" rx="0.09" style="fill:#fff"></rect><rect x="380.98" y="85.86" width="41.66" height="48.83" rx="0.06" style="fill:#f5f5f5"></rect><path d="M419.34,128.71c.05.16-2,1.06-5.91.6a14.42,14.42,0,0,1-6.65-2.65,13.5,13.5,0,0,1-5.17-8.13,11.69,11.69,0,0,1,3.95-11.11,10.51,10.51,0,0,1,3-1.75,8,8,0,0,1,3.75-.43,6.54,6.54,0,0,1,3.74,1.63,4.89,4.89,0,0,1,1.48,4.37,7,7,0,0,1-2.06,3.74,13.28,13.28,0,0,1-3.14,2.32,17.19,17.19,0,0,1-7.48,2.13,14.92,14.92,0,0,1-8-1.81,14.44,14.44,0,0,1-5.87-6.09,12.42,12.42,0,0,1-1.06-8.52,12.67,12.67,0,0,1,4.5-7,11.15,11.15,0,0,1,3.76-1.91,9.49,9.49,0,0,1,4.24-.13,7,7,0,0,1,3.85,2.17,6.35,6.35,0,0,1,1.51,4.12,7.84,7.84,0,0,1-1,3.91,10.47,10.47,0,0,1-2.38,2.86,15.92,15.92,0,0,1-5.9,3.13,15,15,0,0,1-6.21.48,12.55,12.55,0,0,1-5.4-2.07,11.67,11.67,0,0,1-5.16-8.17,9.86,9.86,0,0,1,1.91-7,8.33,8.33,0,0,1,3.54-2.82c1-.37,1.52-.36,1.55-.27s-.44.35-1.23.88a9.14,9.14,0,0,0-2.75,3,8.73,8.73,0,0,0-1.13,6,9.81,9.81,0,0,0,4.59,6.43,11.34,11.34,0,0,0,9.47.9,13.53,13.53,0,0,0,4.73-2.68,5.87,5.87,0,0,0,2.22-4.44,3.2,3.2,0,0,0-2.86-3.15,6,6,0,0,0-2.72.13,7.82,7.82,0,0,0-2.57,1.34,9.42,9.42,0,0,0-3.24,5.17,9,9,0,0,0,.8,6.19,11.18,11.18,0,0,0,4.48,4.66,11.6,11.6,0,0,0,6.16,1.43,14.07,14.07,0,0,0,6.07-1.66,10.62,10.62,0,0,0,2.42-1.7,4.1,4.1,0,0,0,1.23-2,1.73,1.73,0,0,0-.5-1.61,3.6,3.6,0,0,0-2-.89,5.2,5.2,0,0,0-2.36.2,7.75,7.75,0,0,0-2.2,1.21,9.14,9.14,0,0,0-3.35,8.49,11.73,11.73,0,0,0,4,7,14.08,14.08,0,0,0,5.7,2.84C417.2,128.82,419.31,128.42,419.34,128.71Z" style="fill:#ebebeb"></path><rect x="38.98" y="27.25" width="104.17" height="172.43" style="fill:#e0e0e0"></rect><rect x="35.51" y="27.25" width="104.17" height="172.43" style="fill:#ebebeb"></rect><rect x="39.95" y="30.74" width="95.3" height="165.43" style="fill:#fff"></rect><rect x="58.09" y="52.24" width="58.6" height="122.44" style="fill:#f5f5f5"></rect><path d="M58.09,131.35c-.13-11.44,10.15-22.6,21.48-24.2,5.4-.76,11.14.31,16.18-1.76,9-3.69,11.88-15.66,20.94-19.21l.42,88.5h-59Z" style="fill:#ebebeb"></path></g><g id="freepik--Floor--inject-2"><path d="M455.23,471.62c0,.15-91.89.26-205.22.26s-205.24-.11-205.24-.26,91.87-.26,205.24-.26S455.23,471.48,455.23,471.62Z" style="fill:#263238"></path></g><g id="freepik--Plant--inject-2"><path d="M455.91,290.57c-9.44,4.89-16.67,13.3-21.87,22.57s-8.56,19.43-11.88,29.52l-2.9,52c11-18.68,19.79-40.63,22.17-62.16l-7.31-.65c4.9-.75,9-4.3,11.63-8.51s4-9.06,5.27-13.83l-8.91,1.32A33,33,0,0,0,455.91,290.57Z" style="fill:#455a64"></path><g style="opacity:0.30000000000000004"><path d="M455.91,290.57c-9.44,4.89-16.67,13.3-21.87,22.57s-8.56,19.43-11.88,29.52l-2.9,52c11-18.68,19.79-40.63,22.17-62.16l-7.31-.65c4.9-.75,9-4.3,11.63-8.51s4-9.06,5.27-13.83l-8.91,1.32A33,33,0,0,0,455.91,290.57Z"></path></g><path d="M417.63,406.9s-23.82-28.52-23.55-55.74h9.63s-10.46-6.87-9.63-10.72,1.1-18.43,1.1-18.43l8.8,2.2s-6.6-3.3-7.42-8.52,1.92-29.43,1.92-29.43,10.73,11.28,14,22.83,12,25,9.41,60.22S417.63,406.9,417.63,406.9Z" style="fill:#455a64"></path><path d="M429.71,409.59s25.82-17.19,31.55-39.14l-7.74-2.11s9.91-3.24,10.09-6.51,3.14-15.06,3.14-15.06l-7.55-.15s6-1.21,7.83-5.23,4.89-24.08,4.89-24.08-11.09,6.72-16.27,15.28S440.56,350.09,434.9,379,429.71,409.59,429.71,409.59Z" style="fill:#455a64"></path><path d="M405,311.13a1.1,1.1,0,0,1,.09.29l.21.88c.18.81.44,1.94.76,3.38s.72,3.27,1.14,5.37.92,4.48,1.41,7.13c1,5.29,2.1,11.61,3.21,18.64s2.15,14.79,3.11,22.95,1.65,16,2.21,23.07.92,13.5,1.13,18.88c.13,2.69.19,5.13.25,7.26s.11,4,.12,5.49,0,2.64,0,3.47c0,.37,0,.67,0,.9a1.09,1.09,0,0,1,0,.31,2.67,2.67,0,0,1,0-.31c0-.23,0-.53-.05-.9,0-.83-.07-2-.12-3.47s-.11-3.34-.21-5.48-.18-4.56-.33-7.25c-.26-5.38-.69-11.77-1.24-18.86s-1.32-14.89-2.25-23.05-2-15.9-3.06-22.94-2.13-13.35-3.1-18.64c-.47-2.66-.94-5-1.33-7.14s-.75-3.91-1.05-5.39-.51-2.59-.67-3.4c-.07-.37-.12-.66-.16-.89A1,1,0,0,1,405,311.13Z" style="fill:#263238"></path><path d="M414.33,424.36s-21.8-24.74-28.57-39.69l5.11-2.18c-3.71.61-7.5-1-10.38-3.4s-5-5.6-7.05-8.73l6.74-1.14a25,25,0,0,1-14.71-11.4c7.94,1.31,15.13,5.67,21,11.13a104.65,104.65,0,0,1,12.76,14.78,50.18,50.18,0,0,1,5,8.15C407.9,399.45,414.34,415.28,414.33,424.36Z" style="fill:#455a64"></path><path d="M461.6,331.71s0,.09-.09.25l-.34.73-1.32,2.74c-1.16,2.38-2.81,5.84-4.81,10.13-4,8.57-9.29,20.54-14.5,34s-9.35,25.89-12.16,34.93c-1.4,4.51-2.5,8.18-3.24,10.73-.37,1.23-.66,2.21-.87,2.92q-.15.45-.24.75a1.4,1.4,0,0,1-.1.26,1,1,0,0,1,.05-.27c0-.2.11-.46.19-.77.18-.71.44-1.7.77-2.95.68-2.56,1.73-6.25,3.09-10.78,2.72-9.08,6.81-21.51,12-35s10.56-25.44,14.65-34c2.05-4.27,3.75-7.71,5-10.06l1.41-2.7c.15-.29.28-.52.38-.7A1.23,1.23,0,0,1,461.6,331.71Z" style="fill:#263238"></path><path d="M416.18,435a11,11,0,0,1-.33-1.76c-.17-1.14-.46-2.79-.86-4.81a97.33,97.33,0,0,0-11.33-30c-1-1.79-1.9-3.21-2.53-4.18a11.68,11.68,0,0,1-.92-1.54s.12.11.3.35l.79,1.08c.68.93,1.6,2.33,2.68,4.1a88.16,88.16,0,0,1,11.37,30.11c.36,2,.59,3.7.7,4.85.05.53.09,1,.12,1.33A1.61,1.61,0,0,1,416.18,435Z" style="fill:#263238"></path><rect x="397.23" y="429.15" width="47.72" height="9.73" style="fill:#1CBDE3"></rect><polygon points="401.77 438.88 406.94 471.62 435.77 471.62 440.58 438.88 401.77 438.88" style="fill:#1CBDE3"></polygon><path d="M442,438.88c0,.14-9,.26-20.16.26s-20.16-.12-20.16-.26,9-.26,20.16-.26S442,438.74,442,438.88Z" style="fill:#263238"></path></g><g id="freepik--speech-bubbles--inject-2"><circle cx="370.77" cy="128.68" r="24.08" transform="translate(-6.94 22.08) rotate(-3.38)" style="fill:#fff"></circle><path d="M340.07,125.22s.17.2.38.61a3.19,3.19,0,0,1,.29,1.9,3.09,3.09,0,0,1-.48,1.23,2.55,2.55,0,0,1-1.16.95,2.89,2.89,0,0,1-3.88-3.77,2.63,2.63,0,0,1,.91-1.19,3,3,0,0,1,1.23-.51,3.26,3.26,0,0,1,1.9.23c.42.2.61.39.63.37s0-.06-.14-.14a1,1,0,0,0-.18-.14l-.27-.17a3.24,3.24,0,0,0-3.27.2,2.84,2.84,0,0,0-1,1.27,3.19,3.19,0,0,0-.19,1.77,2.9,2.9,0,0,0,2.58,2.51,3.24,3.24,0,0,0,1.76-.24,2.82,2.82,0,0,0,1.24-1,3.06,3.06,0,0,0,.47-1.32,3.13,3.13,0,0,0-.36-2c-.06-.11-.12-.19-.17-.27a1.38,1.38,0,0,0-.15-.17C340.12,125.26,340.08,125.21,340.07,125.22Z" style="fill:#263238"></path><path d="M351.2,114.27l.26-.3.74-.88.54-.66c.21-.23.46-.46.72-.72l.85-.84a4.25,4.25,0,0,1,.5-.44c.17-.15.36-.29.54-.44a23,23,0,0,1,6-3.6,24,24,0,0,1,9-1.88h1.3c.44,0,.88.07,1.33.11l.68.06a5.52,5.52,0,0,1,.68.09l1.36.26.7.13.68.2,1.39.41c.46.15.91.36,1.37.54l.7.28.34.14.34.18a22.27,22.27,0,0,1,2.67,1.52c.43.3.88.57,1.3.89l1.24,1c.2.17.42.33.62.52l.57.58c.38.39.79.76,1.16,1.17a28.4,28.4,0,0,1,2,2.67l.47.72c.08.12.16.23.24.36l.2.38.81,1.53c.24.52.45,1.07.68,1.61.1.28.23.54.32.82l.25.85a27.42,27.42,0,0,1,.83,3.5c.06.61.12,1.21.19,1.82l0,.46c0,.15,0,.3,0,.46v1.85l-.08.93-.08.93,0,.46c0,.16-.06.31-.09.47-.11.61-.23,1.23-.34,1.85l-.54,1.83a23.82,23.82,0,0,1-9,12.27l-1.59,1.06-1.67.88-.42.22-.43.18-.87.35-.86.36-.89.27-.88.26-.44.14-.45.09-1.79.36a27.31,27.31,0,0,1-3.59.25h-.89a8.67,8.67,0,0,1-.88-.06c-.58-.06-1.17-.09-1.74-.17l-1.7-.32-.43-.08-.41-.11-.82-.24a25.09,25.09,0,0,1-3.15-1.15c-.51-.23-1-.5-1.47-.75l-.72-.38c-.24-.13-.45-.29-.68-.44l-1.34-.88c-.43-.31-.82-.66-1.23-1a22.52,22.52,0,0,1-2.25-2.1l-.27-.26-.24-.29-.47-.58c-.31-.39-.64-.76-.92-1.15l-.8-1.21L350,141l-.33-.63-.65-1.22a5.11,5.11,0,0,1-.29-.63c-.09-.21-.17-.42-.26-.62-.17-.42-.35-.83-.5-1.24l-.38-1.25a24.14,24.14,0,0,1-.88-9.17l.09-1,.18-1c.06-.31.11-.62.17-.92,0-.15.05-.3.09-.44l.12-.43c.16-.56.32-1.1.47-1.61s.37-1,.54-1.42l.26-.65a4.88,4.88,0,0,1,.27-.61l.55-1.06c.18-.32.32-.63.48-.9l.47-.71.62-1,.21-.34-.22.32-.65,1-.47.71c-.17.27-.32.58-.49.9l-.57,1.06a5.46,5.46,0,0,0-.27.6l-.27.65c-.17.45-.39.92-.56,1.43s-.31,1-.47,1.61l-.13.43c0,.15-.06.3-.09.45s-.12.6-.18.92-.12.63-.18,1-.06.66-.09,1a24.2,24.2,0,0,0,.85,9.23l.38,1.26c.15.41.33.82.5,1.24.08.21.17.42.26.63a5,5,0,0,0,.28.63l.66,1.24.33.63.4.6.8,1.21c.29.4.62.77.93,1.16l.47.59c.08.09.16.2.25.29l.26.27a24.19,24.19,0,0,0,2.27,2.12c.41.32.8.68,1.24,1l1.34.89c.23.15.45.31.69.44s.48.26.73.38c.49.25,1,.53,1.47.76a26.21,26.21,0,0,0,3.18,1.17l.83.24.41.12.43.08,1.72.32c.58.08,1.17.11,1.76.17.29,0,.59.07.89.07h.89a27.76,27.76,0,0,0,3.62-.25l1.81-.36.45-.09.45-.13.89-.27.9-.28.87-.35.87-.36.44-.18.42-.22,1.69-.89,1.6-1.06a24.2,24.2,0,0,0,9.12-12.39c.18-.62.35-1.23.53-1.84s.24-1.26.35-1.88c0-.15.07-.31.09-.47l0-.47.08-.94.08-.93v-1.87c0-.16,0-.31,0-.47l0-.46c-.07-.61-.13-1.22-.2-1.83a27.47,27.47,0,0,0-.83-3.53l-.26-.86c-.09-.28-.22-.55-.33-.83-.23-.54-.43-1.09-.68-1.62l-.82-1.55-.21-.38c-.07-.12-.15-.24-.23-.36l-.48-.72a26.1,26.1,0,0,0-2.05-2.69c-.38-.41-.78-.79-1.17-1.18l-.58-.59c-.19-.18-.42-.34-.62-.52l-1.25-1c-.43-.32-.88-.59-1.32-.89a22.59,22.59,0,0,0-2.69-1.53l-.34-.18-.35-.14-.7-.28c-.46-.18-.92-.39-1.38-.54l-1.4-.41-.69-.2-.7-.13-1.38-.26a5.28,5.28,0,0,0-.68-.09l-.68-.06-1.34-.11-1.31,0a24.17,24.17,0,0,0-9.07,1.92,23.14,23.14,0,0,0-6,3.65l-.55.45a4.15,4.15,0,0,0-.49.44l-.84.85c-.26.27-.51.5-.72.74l-.54.66-.72.9Z" style="fill:#263238"></path><path d="M363,122h3.82a3.24,3.24,0,0,1,3.32-3.26,3.08,3.08,0,0,1,3,2,3.39,3.39,0,0,1-.27,3.09c-.65,1.07-2.06,2-4.63,1.58v8.6H372v-5a7.35,7.35,0,0,0,5.29-7.19c0-5.58-5-6.88-7.15-6.88C368.53,114.82,363,115.22,363,122Z" style="fill:#1CBDE3"></path><rect x="368.24" y="135.7" width="3.83" height="3.57" style="fill:#1CBDE3"></rect><circle cx="346.8" cy="52.91" r="26.04" transform="translate(64.16 260.72) rotate(-45)" style="fill:#fff"></circle><path d="M323.32,71.66s.29,0,.76.2a3.38,3.38,0,0,1,1.64,1.27,3.21,3.21,0,0,1,.55,1.32,2.93,2.93,0,0,1-.2,1.61,3.12,3.12,0,0,1-5.85-.06,2.84,2.84,0,0,1-.18-1.61,3.34,3.34,0,0,1,.58-1.31,3.46,3.46,0,0,1,1.66-1.24c.48-.16.77-.15.77-.18h-.21l-.25,0a1.51,1.51,0,0,0-.33.07A3.44,3.44,0,0,0,320.48,73a3.4,3.4,0,0,0-.63,1.37,3,3,0,0,0,.16,1.73,3.52,3.52,0,0,0,1.17,1.53,3.27,3.27,0,0,0,1.94.7,3.35,3.35,0,0,0,2-.66,3.57,3.57,0,0,0,1.19-1.5,3,3,0,0,0,.2-1.73,3.49,3.49,0,0,0-2.36-2.65,2.61,2.61,0,0,0-.33-.08l-.25,0Z" style="fill:#263238"></path><path d="M320.74,56.24s0-.15,0-.43,0-.7-.08-1.24c0-.28,0-.58-.06-.92s0-.71,0-1.11,0-.83,0-1.29a3.46,3.46,0,0,1,.06-.71q0-.36.09-.75a25.08,25.08,0,0,1,2-7.28,25.91,25.91,0,0,1,5.65-8.2l1-1c.36-.31.74-.6,1.12-.9l.58-.46a6.46,6.46,0,0,1,.59-.44l1.27-.82.64-.41.68-.35,1.39-.72c.48-.23,1-.4,1.48-.6l.75-.3c.12,0,.25-.11.38-.15l.39-.11a24.19,24.19,0,0,1,3.23-.8c.55-.09,1.11-.22,1.68-.28l1.72-.13c.29,0,.58-.06.88-.06l.88,0c.59,0,1.18,0,1.78.05a28.07,28.07,0,0,1,3.58.58l.9.2.45.11.44.14,1.78.6c.58.22,1.15.5,1.73.75.29.14.59.25.87.41l.84.47a29.17,29.17,0,0,1,3.25,2.12l1.5,1.28.38.33c.12.11.23.23.35.35l.69.72.7.72.63.78.63.8.32.39c.1.14.18.29.28.43l1.11,1.71.95,1.83a27.84,27.84,0,0,1,2.38,8,28,28,0,0,1-.29,8.34c-.15.67-.3,1.34-.46,2s-.43,1.29-.64,1.94l-.17.48-.2.46-.41.93-.42.92-.49.87-.49.87-.25.43-.28.41-1.13,1.62a31.2,31.2,0,0,1-2.62,2.87l-.69.67c-.23.22-.5.4-.74.61-.5.39-1,.8-1.49,1.16l-1.57,1-.39.25c-.13.08-.27.14-.41.22l-.82.42a27,27,0,0,1-3.32,1.46c-.57.19-1.14.33-1.71.5l-.85.24c-.28.08-.57.11-.85.17l-1.71.31c-.56.08-1.13.1-1.7.15a24.59,24.59,0,0,1-3.32,0h-.41l-.4,0-.8-.1c-.54-.07-1.07-.11-1.58-.21l-1.53-.35-.75-.17-.73-.24-1.43-.47a5.07,5.07,0,0,1-.68-.27l-.67-.3c-.45-.2-.89-.38-1.32-.59s-.82-.47-1.23-.69A26.16,26.16,0,0,1,326.17,69c-.23-.29-.46-.57-.67-.85l-.58-.88c-.18-.29-.37-.57-.55-.85s-.18-.27-.26-.41-.15-.28-.22-.42c-.3-.57-.58-1.1-.84-1.61s-.43-1-.64-1.52c-.09-.24-.19-.48-.28-.71a3.32,3.32,0,0,1-.23-.67c-.13-.44-.25-.86-.37-1.24s-.22-.74-.3-1.07-.12-.63-.17-.9c-.1-.53-.17-.94-.23-1.22s-.09-.42-.09-.42,0,.14.07.42.12.69.21,1.23c0,.27.1.57.15.91s.19.68.29,1.07l.36,1.25a3.54,3.54,0,0,0,.23.67c.09.23.18.47.28.71.2.48.37,1,.62,1.53s.54,1.06.84,1.62l.22.43a4.78,4.78,0,0,0,.26.42l.55.85.57.88c.22.29.45.57.68.86a26.17,26.17,0,0,0,7.55,6.59l1.23.7c.43.21.88.39,1.32.6l.68.3a5.2,5.2,0,0,0,.69.27L339,78l.73.25.75.17,1.54.35c.52.1,1.06.14,1.59.22l.81.1.41,0h.41a25,25,0,0,0,3.35,0c.56-.06,1.14-.07,1.71-.15l1.72-.31c.28-.06.58-.09.86-.17l.86-.24c.57-.17,1.15-.31,1.72-.51a28.22,28.22,0,0,0,3.36-1.46l.82-.43.42-.22.39-.25,1.58-1c.52-.37,1-.78,1.51-1.18.24-.2.51-.38.74-.61l.7-.67A30.39,30.39,0,0,0,367.6,69c.38-.54.76-1.09,1.15-1.63L369,67l.25-.44.5-.88.5-.88.41-.92.42-.94.21-.46.16-.49.66-2c.15-.67.3-1.35.46-2a27.9,27.9,0,0,0,.29-8.42,28.16,28.16,0,0,0-2.4-8.08l-1-1.84-1.12-1.73-.29-.43-.32-.4-.63-.8-.64-.79-.7-.73-.7-.72-.36-.36-.38-.32c-.5-.44-1-.87-1.51-1.29a29.33,29.33,0,0,0-3.29-2.14l-.85-.48a8.59,8.59,0,0,0-.87-.4c-.59-.26-1.16-.54-1.75-.77l-1.79-.59-.45-.15-.45-.11-.91-.2a26.69,26.69,0,0,0-3.62-.57c-.6-.05-1.2,0-1.79-.06l-.89,0c-.29,0-.59,0-.88.05l-1.74.14c-.57.06-1.13.19-1.69.29a23,23,0,0,0-3.25.81l-.4.11c-.13,0-.25.1-.38.15l-.75.3c-.5.21-1,.38-1.49.61l-1.4.73-.69.36c-.22.13-.43.28-.64.42l-1.27.82a5.45,5.45,0,0,0-.6.44l-.58.46c-.38.31-.77.61-1.13.92l-1,1a26.15,26.15,0,0,0-5.65,8.27,24.85,24.85,0,0,0-2,7.32l-.09.75a4.46,4.46,0,0,0-.06.72c0,.46,0,.89,0,1.29s0,.78,0,1.11.05.65.07.92c.05.54.09,1,.11,1.25S320.74,56.24,320.74,56.24Z" style="fill:#263238"></path><path d="M350,59.84s-.95.17-2.78.29a19.17,19.17,0,0,1-3.39-.09,8.75,8.75,0,0,1-4.3-1.66A6.87,6.87,0,0,1,337,53.3a8.64,8.64,0,0,1,2.29-6.4,12.55,12.55,0,0,1,6.88-3.84,11.16,11.16,0,0,1,4.35,0,8.43,8.43,0,0,1,4.12,2,9.76,9.76,0,0,1,2.5,9.19,12,12,0,0,1-6.68,8,17.61,17.61,0,0,1-5.38,1.64,12.7,12.7,0,0,1-5.8-.3,5.22,5.22,0,0,1-2.45-1.78,3.83,3.83,0,0,1-.74-3c.4-2.12,2-3.69,3.55-5a15.37,15.37,0,0,1,8.83-3.28,7.59,7.59,0,0,1,3.25.5,4.32,4.32,0,0,1,2.37,2.38,3.25,3.25,0,0,1,.13,1.75,3.47,3.47,0,0,1-.79,1.55,5.13,5.13,0,0,1-3,1.68,5.65,5.65,0,0,1-3.41-.49,4.26,4.26,0,0,1-2.31-2.6,4.16,4.16,0,0,1,.69-3.44,4.68,4.68,0,0,1,3-1.91,6.36,6.36,0,0,1,3.53.36,6.79,6.79,0,0,1,2.84,2.16,5.44,5.44,0,0,1,1.17,3.41,5,5,0,0,1-1.38,3.37,4.57,4.57,0,0,1-3.41,1.29,10.42,10.42,0,0,1-6.45-3,10.17,10.17,0,0,1-3.34-6.16,8,8,0,0,1,2-6.58A6.71,6.71,0,0,1,349.8,43a5.8,5.8,0,0,1,2.88,1.88,8.48,8.48,0,0,1,1.61,3,13.7,13.7,0,0,1,.33,6.57,8.66,8.66,0,0,1-3.31,5.5,8.89,8.89,0,0,1-6.08,1.53,8.59,8.59,0,0,1-5.48-2.72,10.12,10.12,0,0,1-2.51-5.42,10.05,10.05,0,0,1,4.5-10,8.51,8.51,0,0,1,10.12.33,15,15,0,0,1,5.27,8.16,11.49,11.49,0,0,1,.29,4.58,8.47,8.47,0,0,1-1.73,4,9.47,9.47,0,0,1-6.94,3.57,9.72,9.72,0,0,1-6.45-2.24A10.18,10.18,0,0,1,339,56.92a10.86,10.86,0,0,1-.38-4.6,11.34,11.34,0,0,1,.93-3.27,10.83,10.83,0,0,1,1-1.8c.29-.38.44-.56.44-.56a6.9,6.9,0,0,1-.4.59,12.72,12.72,0,0,0-1,1.82,11.57,11.57,0,0,0-.87,3.24,10.72,10.72,0,0,0,.43,4.52,9.8,9.8,0,0,0,3.23,4.62,9.4,9.4,0,0,0,6.28,2.15,9.21,9.21,0,0,0,6.69-3.48,8.15,8.15,0,0,0,1.65-3.84,11.19,11.19,0,0,0-.31-4.44,14.64,14.64,0,0,0-5.15-7.93,8.07,8.07,0,0,0-9.64-.29,10,10,0,0,0-3.53,4.07,9.87,9.87,0,0,0-.76,5.49,9.7,9.7,0,0,0,2.4,5.17,8.09,8.09,0,0,0,5.19,2.56A8.38,8.38,0,0,0,351,59.49a8.17,8.17,0,0,0,3.1-5.19A13.08,13.08,0,0,0,353.8,48a8.08,8.08,0,0,0-1.5-2.8,5.35,5.35,0,0,0-2.63-1.72,6.24,6.24,0,0,0-6,1.71,7.51,7.51,0,0,0-1.86,6.15A9.72,9.72,0,0,0,345,57.16,9.93,9.93,0,0,0,351.14,60a4,4,0,0,0,3-1.14,4.43,4.43,0,0,0,1.23-3,5.64,5.64,0,0,0-3.68-5.08,5.81,5.81,0,0,0-3.24-.33,4.19,4.19,0,0,0-2.66,1.69,3.42,3.42,0,0,0,1.42,5.29,5.12,5.12,0,0,0,3.1.45,4.68,4.68,0,0,0,2.68-1.5,2.77,2.77,0,0,0,.57-2.81,3.81,3.81,0,0,0-2.1-2.09,7.09,7.09,0,0,0-3-.47,15.28,15.28,0,0,0-3.08.46,15.13,15.13,0,0,0-5.46,2.71c-1.55,1.25-3,2.79-3.39,4.69a3.38,3.38,0,0,0,.65,2.63,4.8,4.8,0,0,0,2.24,1.63,12.24,12.24,0,0,0,5.58.29,17.3,17.3,0,0,0,5.25-1.59,11.5,11.5,0,0,0,6.47-7.67,9.35,9.35,0,0,0-2.35-8.83,8.12,8.12,0,0,0-3.94-2,10.89,10.89,0,0,0-4.22,0,12.28,12.28,0,0,0-6.72,3.71,8.42,8.42,0,0,0-2.27,6.2,6.73,6.73,0,0,0,2.47,4.93,8.52,8.52,0,0,0,4.2,1.66,18.58,18.58,0,0,0,3.37.14c.91,0,1.61-.1,2.07-.13Z" style="fill:#263238"></path></g><g id="freepik--character-1--inject-2"><path d="M256.33,179.08l6-2.87s.67-5.68,1.76-8,8.4-10.8,8.4-10.8a2.79,2.79,0,0,1,1.5,3.22c-.28,1-3.75,7.64-3.75,7.64h0c.79.59,2.52,1,4.56-.41,2.5-1.69,5.44-3.63,5.86-3.81s2-3.93,3.14-6.72c.67-1.68,3.33-1.51,3.59.28a.84.84,0,0,1-.06.5s2.84-1.36,2,3.56c0,0,2.22,3.25.86,5.78,0,0,1.06,4.63.38,6.69s-12.66,10.6-12.66,10.6l-13.4,7.43Z" style="fill:#ae7461"></path><path d="M221.18,171.45l10.9,13.42,28.51-7,11.2,10.22s-29.6,17.2-35.1,18.85c-6.22,1.86-10.35.21-15.75-3.64s-17-18.18-17-18.18Z" style="fill:#ae7461"></path><path d="M175.73,436.6l-1.24,22.59s22.54,8.84,22.72,13l-43.87-.83.48-35.27Z" style="fill:#455a64"></path><path d="M161,457a1.78,1.78,0,0,0-1.27,2,1.72,1.72,0,0,0,2,1.29,1.89,1.89,0,0,0,1.34-2.15,1.79,1.79,0,0,0-2.22-1.11" style="fill:#e0e0e0"></path><path d="M153.34,471.4l.18-3.55,42,2.12s1.94.89,1.69,2.26Z" style="fill:#263238"></path><path d="M175.21,459c0,.21-1.09.29-2.15,1s-1.65,1.56-1.84,1.47.14-1.32,1.45-2.11S175.26,458.78,175.21,459Z" style="fill:#fff"></path><path d="M179.78,461c0,.21-.89.55-1.64,1.45s-1,1.84-1.19,1.83-.32-1.23.63-2.32S179.77,460.76,179.78,461Z" style="fill:#fff"></path><path d="M182.29,466.53c-.2,0-.48-1,.09-2.2s1.59-1.61,1.67-1.43-.54.79-1,1.76S182.5,466.51,182.29,466.53Z" style="fill:#fff"></path><path d="M174.92,453.8c-.09.19-1.07-.12-2.28-.06s-2.17.42-2.28.24.82-.94,2.25-1S175,453.63,174.92,453.8Z" style="fill:#fff"></path><path d="M122.61,434.38l-2.38,27.26,4.34,22.1a2.81,2.81,0,0,1-2.4,3.33h0a2.8,2.8,0,0,1-2.41-.88c-3.91-4.27-18.22-20-17.93-22,.33-2.3.59-28.92.59-28.92Z" style="fill:#455a64"></path><path d="M122.17,487.07,102,462.34l-.08,1.15a4.32,4.32,0,0,0,.82,2.8c1.61,2.15,6.16,8,17,19.89a2.82,2.82,0,0,0,2.49.89Z" style="fill:#263238"></path><g style="opacity:0.6000000000000001"><path d="M108.11,453.89a1.69,1.69,0,0,1,.33,2.24,1.64,1.64,0,0,1-2.22.34,1.8,1.8,0,0,1-.33-2.38,1.7,1.7,0,0,1,2.35-.1" style="fill:#fff"></path></g><path d="M116.7,474.73a8.61,8.61,0,0,1,2.53-2,8.75,8.75,0,0,1,3.18-.4c0-.06-.3-.3-.94-.43a4.49,4.49,0,0,0-4.42,1.84C116.7,474.31,116.63,474.71,116.7,474.73Z" style="fill:#fff"></path><path d="M118.41,478.51a23.15,23.15,0,0,1,2.49-1,23.59,23.59,0,0,1,2.69-.18c.09-.13-1.19-.8-2.82-.41S118.27,478.43,118.41,478.51Z" style="fill:#fff"></path><path d="M113.38,469.81c.12.14,1.55-1.14,3.74-1.83s4.09-.5,4.11-.68-2-.66-4.29.11A6.23,6.23,0,0,0,113.38,469.81Z" style="fill:#fff"></path><path d="M113.41,461.47c.06.16,1.61-.37,3.58-.31s3.49.62,3.56.46a5.41,5.41,0,0,0-3.55-1.06C114.88,460.5,113.33,461.33,113.41,461.47Z" style="fill:#fff"></path><path d="M113.9,453.45a13.77,13.77,0,0,1,3.72-.43,13.57,13.57,0,0,1,3.56,1.15c0-.06-.23-.42-.83-.82a6.11,6.11,0,0,0-5.47-.54C114.21,453.08,113.86,453.38,113.9,453.45Z" style="fill:#fff"></path><path d="M117.67,451.5a2.43,2.43,0,0,0,.1-1,7.2,7.2,0,0,0-.65-2.76,3.15,3.15,0,0,0-1.26-1.61,1.13,1.13,0,0,0-1.29.17,1.86,1.86,0,0,0-.51,1.2,4,4,0,0,0,3.23,3.89,4.6,4.6,0,0,0,4.66-2.11,1.55,1.55,0,0,0,.16-1.32,1.1,1.1,0,0,0-1.11-.66,3.9,3.9,0,0,0-1.86.82,7.93,7.93,0,0,0-2,2,2.38,2.38,0,0,0-.48.92,12.35,12.35,0,0,1,2.71-2.57,3.62,3.62,0,0,1,1.64-.67.58.58,0,0,1,.61.35,1.11,1.11,0,0,1-.15.86,4.11,4.11,0,0,1-4.06,1.79,3.43,3.43,0,0,1-2.79-3.26,1.26,1.26,0,0,1,.32-.86.61.61,0,0,1,.7-.1,2.9,2.9,0,0,1,1.1,1.34A10.67,10.67,0,0,1,117.67,451.5Z" style="fill:#fff"></path><path d="M197.47,246.92s8.17,12.74,7,28.44C204,281.43,182,452.1,182,452.1l-36.32.3,13-160.72-2.27.49s-11.71,60.9-12.94,71.81c-1.11,9.8-13.92,87.4-13.92,87.4l-30.73.35,6.59-90.55,5-91.65L122,240.86Z" style="fill:#455a64"></path><polygon points="120.37 128.79 136.26 123.42 164.02 124.09 173.14 124.95 158.03 173.44 144.4 171.45 120.37 128.79" style="fill:#ae7461"></polygon><path d="M232.27,177.55s-29.84-45.3-32.23-46.27c-4.78-1.93-32.82-8.27-32.82-8.27l-14.36,13.85-18-13.31s-29.79,5.1-31.19,9,10.15,72.81,10.15,72.81-4.75,37.92-4.37,54.88l-4.24,17.58,102.19.27s-2.32-34.51-6.2-65.81l-2.34-27.68L211,197.71Z" style="fill:#455a64"></path><path d="M195,142.22a2.39,2.39,0,0,1,.12.58c.07.44.15,1,.25,1.68.21,1.46.47,3.57.78,6.19.61,5.23,1.35,12.46,2,20.47s1.08,15.27,1.34,20.53c.12,2.57.21,4.69.28,6.23,0,.69,0,1.25,0,1.69a2,2,0,0,1,0,.59,3.93,3.93,0,0,1-.08-.58c0-.45-.09-1-.14-1.69-.11-1.54-.26-3.65-.44-6.22-.36-5.25-.86-12.5-1.5-20.51s-1.32-15.24-1.83-20.47c-.26-2.57-.47-4.67-.62-6.2-.06-.69-.11-1.25-.15-1.69A3.41,3.41,0,0,1,195,142.22Z" style="fill:#263238"></path><path d="M114,128.67l-7.46,2c-8.7,2.62-11.4,10.39-12.3,15.46L85,197.74l29.08,10.52,10-7.83Z" style="fill:#455a64"></path><path d="M206.86,267.6a.87.87,0,0,0-.24,0l-.7.12-2.66.44c-2.32.37-5.68.89-9.86,1.19a44.49,44.49,0,0,1-6.83,0,12.93,12.93,0,0,1-1.84-.26c-.31-.06-.63-.11-.93-.19l-.91-.3c-1.22-.34-1.89-1.62-2.44-2.83a22.24,22.24,0,0,1-1.23-4c-.32-1.41-.58-2.86-.78-4.36-.43-3-.7-6.09-.9-9.28-.41-7-.47-13.62-.37-19.5l-.24.24,19.42-.4,5.52-.16,1.46-.06a2.8,2.8,0,0,0,.5,0,3.21,3.21,0,0,0-.5,0l-1.47,0-5.51,0-19.43.21h-.23v.24c-.13,5.89-.09,12.54.32,19.54.2,3.2.48,6.33.91,9.33.22,1.5.48,3,.8,4.4A23.37,23.37,0,0,0,180,266a8.52,8.52,0,0,0,1,1.83,4.89,4.89,0,0,0,.74.77,3.31,3.31,0,0,0,.94.47l1,.31c.32.09.64.13,1,.2a15.55,15.55,0,0,0,1.89.25,43.56,43.56,0,0,0,6.89-.06,96.26,96.26,0,0,0,9.87-1.36c1.16-.22,2.05-.41,2.65-.55l.69-.16Z" style="fill:#263238"></path><path d="M177.2,235.41c0,.15,6.19.27,13.83.27s13.83-.12,13.83-.27-6.19-.27-13.83-.27S177.2,235.26,177.2,235.41Z" style="fill:#263238"></path><path d="M116.41,278.05c0,.15,20.05.27,44.78.27s44.77-.12,44.77-.27-20-.27-44.77-.27S116.41,277.9,116.41,278.05Z" style="fill:#263238"></path><rect x="122.55" y="173.44" width="20.2" height="14.4" style="fill:#fff"></rect><path d="M129.91,181.25A2.22,2.22,0,1,1,127.7,179,2.22,2.22,0,0,1,129.91,181.25Z" style="fill:#e0e0e0"></path><rect x="131.57" y="180.34" width="8.26" height="1.42" rx="0.67" style="fill:#e0e0e0"></rect><polyline points="131.42 175.67 129.76 171.2 135.55 171.2 134.14 175.67 131.42 175.67" style="fill:#263238"></polyline><path d="M167.37,168.74a2.68,2.68,0,0,1-.22.51l-.72,1.41c-.62,1.22-1.6,3-2.88,5.05s-2.88,4.54-4.78,7.17-4.13,5.43-6.61,8.24-5,5.35-7.37,7.58-4.6,4.11-6.53,5.63-3.52,2.7-4.66,3.47l-1.31.89a3,3,0,0,1-.48.28,2.37,2.37,0,0,1,.42-.37l1.25-1c1.1-.82,2.66-2,4.55-3.6s4.08-3.48,6.43-5.69,4.83-4.78,7.31-7.57,4.68-5.59,6.61-8.18,3.56-5,4.86-7.09,2.34-3.76,3-4.95l.81-1.36A2.08,2.08,0,0,1,167.37,168.74Z" style="fill:#263238"></path><path d="M137.73,235a5.3,5.3,0,0,1,.46-.56l1.41-1.52c.61-.65,1.36-1.45,2.21-2.41s1.83-2,2.87-3.25c2.11-2.42,4.52-5.38,7.1-8.75s5.27-7.19,7.93-11.3,5-8.16,7-11.89,3.7-7.17,5-10.09c.69-1.44,1.25-2.78,1.77-3.95s.94-2.18,1.28-3,.61-1.42.81-1.91a3.62,3.62,0,0,1,.32-.65,4.31,4.31,0,0,1-.22.69c-.18.5-.42,1.14-.72,1.95s-.7,1.87-1.2,3-1,2.54-1.71,4c-1.29,2.94-3,6.39-4.95,10.16s-4.35,7.81-7,11.94-5.4,7.93-8,11.31-5.06,6.31-7.21,8.7c-1,1.22-2.06,2.27-2.93,3.21s-1.64,1.72-2.28,2.35l-1.47,1.46A3.8,3.8,0,0,1,137.73,235Z" style="fill:#263238"></path><path d="M105.22,150.76c.14,0,2.44,13.8,5.12,30.87s4.75,30.93,4.61,31-2.43-13.79-5.12-30.87S105.08,150.78,105.22,150.76Z" style="fill:#263238"></path><path d="M177,70a22.9,22.9,0,0,0-21.95-22l-1.19,0c-12.81.22-19.78,11.22-19.21,24l1.62,51.54,20.26,7.73,7.83-7.2c0-3.6,0-11.08.07-11.08s12.36-1.4,13-13.68C177.77,93.39,177.43,81.12,177,70Z" style="fill:#ae7461"></path><path d="M164.43,113a29.62,29.62,0,0,1-15.8-5.39s3.46,9.4,15.77,8.8Z" style="fill:#6f4439"></path><path d="M172.46,81.06a1.76,1.76,0,0,1-1.76,1.7A1.68,1.68,0,0,1,169,81.1a1.74,1.74,0,0,1,1.76-1.7A1.68,1.68,0,0,1,172.46,81.06Z" style="fill:#263238"></path><path d="M174.16,75.34c-.23.22-1.51-.82-3.4-.89s-3.31.81-3.51.57.14-.51.76-.92a4.9,4.9,0,0,1,2.82-.75,4.63,4.63,0,0,1,2.7,1C174.09,74.82,174.27,75.24,174.16,75.34Z" style="fill:#263238"></path><path d="M156.35,80.62a1.76,1.76,0,0,1-1.77,1.7,1.68,1.68,0,0,1-1.74-1.66A1.76,1.76,0,0,1,154.6,79,1.69,1.69,0,0,1,156.35,80.62Z" style="fill:#263238"></path><path d="M155.64,75c-.23.22-1.52-.82-3.41-.89s-3.31.82-3.5.58.14-.51.76-.93a4.78,4.78,0,0,1,2.82-.74,4.66,4.66,0,0,1,2.7,1C155.57,74.49,155.75,74.92,155.64,75Z" style="fill:#263238"></path><path d="M161.81,89.8a12.65,12.65,0,0,1,3.09-.43c.48,0,.94-.1,1-.43a2.38,2.38,0,0,0-.27-1.44c-.4-1.19-.82-2.43-1.27-3.73-1.76-5.31-3-9.67-2.8-9.74s1.81,4.18,3.58,9.49c.42,1.31.83,2.56,1.21,3.75a2.76,2.76,0,0,1,.17,1.9,1.19,1.19,0,0,1-.82.67,3.11,3.11,0,0,1-.82.08A12,12,0,0,1,161.81,89.8Z" style="fill:#263238"></path><path d="M156.49,69.13c-.27.47-2.09-.11-4.31-.25s-4.11.13-4.31-.38c-.09-.24.3-.66,1.11-1a7.47,7.47,0,0,1,6.56.48C156.29,68.44,156.61,68.91,156.49,69.13Z" style="fill:#263238"></path><path d="M174.48,69.79c-.41.42-1.93-.06-3.78-.13s-3.43.19-3.77-.26c-.16-.23.1-.65.8-1a6.32,6.32,0,0,1,6.08.32C174.45,69.14,174.65,69.59,174.48,69.79Z" style="fill:#263238"></path><path d="M135.28,81.15c-.21-.1-8.34-2.85-8.42,5.56s8.38,6.76,8.4,6.52S135.28,81.15,135.28,81.15Z" style="fill:#ae7461"></path><path d="M132.72,90s-.15.1-.4.21a1.43,1.43,0,0,1-1.09,0c-.89-.33-1.62-1.75-1.65-3.27a5,5,0,0,1,.43-2.09,1.75,1.75,0,0,1,1.11-1.12.77.77,0,0,1,.87.41c.11.24,0,.41.1.42s.18-.14.11-.48a.92.92,0,0,0-.32-.53,1.1,1.1,0,0,0-.81-.23,2,2,0,0,0-1.54,1.29A5,5,0,0,0,129,87c0,1.7.89,3.29,2.1,3.65a1.55,1.55,0,0,0,1.34-.21C132.7,90.22,132.75,90,132.72,90Z" style="fill:#6f4439"></path><path d="M155.88,91c.29,0,.3,1.91,2,3.27s3.71,1.15,3.73,1.42-.46.37-1.33.4A4.8,4.8,0,0,1,157.13,95a4.17,4.17,0,0,1-1.52-2.75C155.53,91.44,155.75,91,155.88,91Z" style="fill:#263238"></path><path d="M194,59a2,2,0,0,0-.92-1.18,6.14,6.14,0,0,0-3.14-.54,17.83,17.83,0,0,1-7.67-2,8.91,8.91,0,0,0,2.28-1.57,5.26,5.26,0,0,0,1.57-5.23,1.15,1.15,0,0,0-.65-.81c-.54-.17-1,.36-1.41.78a4.53,4.53,0,0,1-4.3,1.76,7.46,7.46,0,0,1-3.19-1l-.1-.12c-.43-.45-.85-.89-1.27-1.31h0c-3.13-3.18-5.83-5.38-8.61-6.54-4.09-1.7-10.95-2.45-15.24-1.37s-8.18,4.5-8.83,8.88c-2.37-2.06-6-2.08-8.92-.94l-.07,0c-3.27,1.12-5.16,4.54-6.16,7.85l-.15.55a13,13,0,0,1-4.43,4.23c-.32.18-.68.4-.72.76s.25.66.54.87a6.5,6.5,0,0,0,2.63,1.13,14.9,14.9,0,0,1-1.11,2.27c-.37.62-.82,1.36-.5,2a1.37,1.37,0,0,0,1.43.65,4.21,4.21,0,0,0,1.52-.67L125.43,70a7.75,7.75,0,0,0,3.55-.19c.65,3.11,1.11,8.87,1.88,11,2.23.07,2.78-.17,3.9.22,1.45.5.87,3.07,2.77,2.36,1-.36,2.49-4,2.83-5a48.27,48.27,0,0,0,2.31-20.31,15.25,15.25,0,0,1,4.8-3.38l-.15.13c3.46-1.16,7.36-2.29,10.6-.64,2.52,1.28,4,3.93,5.85,6a17.56,17.56,0,0,0,12.92,6.47c.44,3.72.51,9.79.65,13.26l3-6.9v0c.24-.41.45-.81.64-1.22l.07-.12v0a19.06,19.06,0,0,1,1-2l0,0a2.16,2.16,0,0,0,3.19-2.86,4.93,4.93,0,0,0-1-1.06,3.44,3.44,0,0,0,3.25.88,2.68,2.68,0,0,0,1.93-2.64,2.27,2.27,0,0,0-1.34-1.84,7.73,7.73,0,0,0,4.4-.92C193.39,60.86,194.25,60.05,194,59Z" style="fill:#263238"></path><path d="M146.35,50.17a10.25,10.25,0,0,0-1.25,1.11,8.86,8.86,0,0,0-1.93,4.07,14.88,14.88,0,0,0-.35,3.12c0,1.13.06,2.35.13,3.63a33.68,33.68,0,0,1,.05,4,14.27,14.27,0,0,1-.31,2.12,4.39,4.39,0,0,1-.89,2.06,1.87,1.87,0,0,1-1.74.56,2.69,2.69,0,0,1-1.55-.9,6.36,6.36,0,0,1-1.16-3.14l.26,0a10,10,0,0,1-1.52,2.56,3.67,3.67,0,0,1-2.41,1.28,2.37,2.37,0,0,1-1.27-.24,2,2,0,0,1-.85-.86,2.1,2.1,0,0,1-.25-1.09,1.5,1.5,0,0,1,.4-1l.13.12a7.9,7.9,0,0,1-2.66,2,6.22,6.22,0,0,1-.83.31l-.29.07a1.2,1.2,0,0,1,.28-.12c.18-.07.46-.18.8-.35a8.14,8.14,0,0,0,2.57-2l.13.12a1.58,1.58,0,0,0-.1,1.83,1.94,1.94,0,0,0,.77.76,2.21,2.21,0,0,0,1.15.2,3.41,3.41,0,0,0,2.23-1.22,10.07,10.07,0,0,0,1.48-2.5l.18-.4.07.43a6.25,6.25,0,0,0,1.1,3,2.44,2.44,0,0,0,1.39.81,1.55,1.55,0,0,0,1.48-.48,4.09,4.09,0,0,0,.82-1.92,13.72,13.72,0,0,0,.3-2.08,31.4,31.4,0,0,0,0-4c-.06-1.28-.13-2.5-.1-3.65A15.26,15.26,0,0,1,143,55.3,8.78,8.78,0,0,1,145,51.2,5,5,0,0,1,146.35,50.17Z" style="fill:#455a64"></path><path d="M184.29,62.57s0,0-.1.09l-.31.22a5.09,5.09,0,0,1-.53.33,5.77,5.77,0,0,1-.75.38,10.94,10.94,0,0,1-5.28.89,13.88,13.88,0,0,1-7.39-2.83,24,24,0,0,1-6.3-7.43c-.88-1.5-1.59-3-2.38-4.45A16.14,16.14,0,0,0,158.54,46,8.28,8.28,0,0,0,155,43.8a5.8,5.8,0,0,0-1.87-.24,6.25,6.25,0,0,0-1.71.31,7.17,7.17,0,0,0-4,3.3,8.17,8.17,0,0,0-.65,1.84s0,0,0-.13,0-.23.06-.38a6.16,6.16,0,0,1,.48-1.38,7,7,0,0,1,1.4-1.85,7.14,7.14,0,0,1,2.63-1.59,6.7,6.7,0,0,1,1.77-.34,6,6,0,0,1,2,.23,8.66,8.66,0,0,1,3.64,2.23,16.56,16.56,0,0,1,2.77,3.83c.79,1.43,1.51,3,2.38,4.45a24.08,24.08,0,0,0,6.2,7.36,13.9,13.9,0,0,0,7.26,2.84,11.17,11.17,0,0,0,5.22-.79A14.64,14.64,0,0,0,184.29,62.57Z" style="fill:#455a64"></path><path d="M185.47,57.18a2,2,0,0,1-.44.3,9.54,9.54,0,0,1-1.32.65,13.15,13.15,0,0,1-2.08.66,15.14,15.14,0,0,1-2.65.32,15.77,15.77,0,0,1-2.66-.21,13.62,13.62,0,0,1-2.1-.57,10.25,10.25,0,0,1-1.34-.6,1.82,1.82,0,0,1-.46-.28c0-.05.7.31,1.87.68a12.73,12.73,0,0,0,2.08.5,15.25,15.25,0,0,0,2.61.19,16.93,16.93,0,0,0,2.6-.29,14,14,0,0,0,2.06-.59C184.78,57.52,185.45,57.13,185.47,57.18Z" style="fill:#455a64"></path><path d="M111,313.49a1.67,1.67,0,0,1-2.7.12c-.67-.61-1.38-7.41-1.38-7.41l-1.58-9.09.29,17.32s-.18,1.64-1.47,1.7-2.15-1.84-2.15-1.84l-1.86-17.84s.6,9.92-.06,10.44c-.9.69-1.71.46-2-.3-.6-1.54-1.47-10.46-1.47-10.46l-.82-17L94.89,271l15.89-1,.71,4.85s6.28,4.74,7.66,6.61,4.78,8.55,7.32,10.5a1.92,1.92,0,0,1-3,1.3,21.72,21.72,0,0,1-6.62-5.76c-1.07-1.62-2.19-.67-2.25.75s1.16,11,1.16,11,3,10.7,2.19,11.89a2,2,0,0,1-3,.15c-.41-.56-3.8-9.5-3.8-9.5" style="fill:#ae7461"></path><path d="M94.27,201.12s-1.08,33.68-1.21,39c-.2,8.2,2.12,32.33,2.12,32.33l16.31,2.33.56-67.21Z" style="fill:#ae7461"></path></g><g id="freepik--character-2--inject-2"><polygon points="330.92 245.8 253.31 245.8 244.85 310.35 249.86 452.95 276.55 452.95 294.87 327.1 300.57 454.92 334.44 455.57 342.81 301.54 330.92 245.8" style="fill:#263238"></polygon><path d="M325.63,440.44l-.77,20.45s20.52,7.66,20.74,11.45l-39.7-.08-.1-31.91Z" style="fill:#263238"></path><path d="M312.58,459.14a1.62,1.62,0,0,0-1.12,1.85,1.55,1.55,0,0,0,1.82,1.13,1.71,1.71,0,0,0,1.18-2,1.63,1.63,0,0,0-2-1" style="fill:#e0e0e0"></path><path d="M305.9,472.26,306,469l38,1.28s1.77.78,1.56,2Z" style="fill:#455a64"></path><path d="M325.5,460.69c0,.19-1,.28-1.93.9S322.1,463,321.92,463s.12-1.2,1.29-1.93S325.54,460.51,325.5,460.69Z" style="fill:#fff"></path><path d="M329.66,462.42c0,.19-.8.52-1.46,1.34s-.85,1.68-1,1.67-.32-1.1.52-2.11S329.66,462.24,329.66,462.42Z" style="fill:#fff"></path><path d="M332,467.41c-.18,0-.45-.93.05-2s1.41-1.48,1.49-1.32-.48.73-.88,1.61S332.21,467.39,332,467.41Z" style="fill:#fff"></path><path d="M325.16,456c-.08.18-1-.09-2.07,0s-1.95.41-2,.25.72-.86,2-.93S325.26,455.86,325.16,456Z" style="fill:#fff"></path><path d="M268.88,437.55l.54,24.75,6.06,19.46a2.53,2.53,0,0,1-1.83,3.22h0a2.49,2.49,0,0,1-2.25-.56c-3.94-3.45-18.35-16.22-18.29-18,.07-2.1-2.3-26.07-2.3-26.07Z" style="fill:#263238"></path><path d="M273.65,485,253,464.72l.05,1a3.85,3.85,0,0,0,1,2.43c1.66,1.78,6.33,6.58,17.23,16.23a2.54,2.54,0,0,0,2.33.55Z" style="fill:#455a64"></path><g style="opacity:0.6000000000000001"><path d="M257.75,456.51a1.53,1.53,0,0,1,.51,2,1.47,1.47,0,0,1-2,.52,1.63,1.63,0,0,1-.53-2.1,1.53,1.53,0,0,1,2.1-.32" style="fill:#fff"></path></g><path d="M267.52,474.42c.14.07.64-1.25,2.08-2a8,8,0,0,1,2.82-.67c0-.06-.3-.24-.88-.29a4.06,4.06,0,0,0-3.8,2.08C267.48,474,267.45,474.41,267.52,474.42Z" style="fill:#fff"></path><path d="M269.43,477.66a19.56,19.56,0,0,1,2.14-1.16,19.79,19.79,0,0,1,2.4-.42,2.82,2.82,0,0,0-2.58-.1C270,476.47,269.29,477.6,269.43,477.66Z" style="fill:#fff"></path><path d="M264.05,470.32a26.44,26.44,0,0,1,3.19-2,26.08,26.08,0,0,1,3.63-1,5.71,5.71,0,0,0-3.86.52A5.65,5.65,0,0,0,264.05,470.32Z" style="fill:#fff"></path><path d="M263.26,462.81c.07.15,1.41-.48,3.19-.63s3.2.23,3.25.07a6.29,6.29,0,0,0-6.44.56Z" style="fill:#fff"></path><path d="M262.92,455.55a12.56,12.56,0,0,1,3.3-.74,12.21,12.21,0,0,1,3.31.68c0-.06-.24-.36-.83-.66a5.45,5.45,0,0,0-2.49-.57,5.53,5.53,0,0,0-2.48.62C263.15,455.19,262.88,455.5,262.92,455.55Z" style="fill:#fff"></path><path d="M295.67,286.26a13.37,13.37,0,0,1,.09,1.73c0,1.11,0,2.71,0,4.7,0,4-.2,9.44-.47,15.49s-.51,11.52-.63,15.48c-.06,1.92-.1,3.5-.14,4.69a9.43,9.43,0,0,1-.11,1.72,11.18,11.18,0,0,1-.09-1.72c0-1.11,0-2.71,0-4.7,0-4,.21-9.45.48-15.49s.51-11.52.63-15.48c.05-1.92.1-3.5.14-4.7A9.56,9.56,0,0,1,295.67,286.26Z" style="fill:#455a64"></path><path d="M319,457.44c-.14,0-.26-26.94-.26-60.17s.12-60.17.26-60.17.26,26.93.26,60.17S319.18,457.44,319,457.44Z" style="fill:#455a64"></path><path d="M262.52,447.57a1.7,1.7,0,0,1,0-.3c0-.22.06-.5.1-.85.1-.78.23-1.87.41-3.25.37-2.87.89-6.95,1.54-12,1.28-10.11,2.93-24.1,4.44-39.58s2.61-29.53,3.31-39.7c.34-5.06.62-9.16.81-12,.1-1.4.18-2.49.23-3.28,0-.35.05-.63.07-.85a1,1,0,0,1,.05-.29s0,.1,0,.29,0,.51,0,.86c0,.78-.08,1.88-.13,3.28-.13,2.85-.34,7-.65,12.06-.61,10.18-1.65,24.23-3.16,39.72s-3.22,29.47-4.6,39.58c-.68,5.05-1.27,9.14-1.7,12q-.33,2.07-.51,3.24c-.06.35-.1.62-.14.84A1.48,1.48,0,0,1,262.52,447.57Z" style="fill:#455a64"></path><path d="M299.67,149.18l-31.51.73-2.94,11.78s8.48,7.25,9.33,7.56,20.54,3.69,20.54,3.69,21.61-9.27,21.32-9.18S299.67,149.18,299.67,149.18Z" style="fill:#ffbf9d"></path><path d="M269.9,162.55s11.78,7.31,21,5.57a35.64,35.64,0,0,0,15.8-7.9l15,37.34-11.82,73.53L280.91,274l-7.36-70.31Z" style="fill:#fff"></path><path d="M268.16,149.91c-.41.12-9.7,1.58-9.7,1.58l-16.29,25.69,4.33,39.1s-4.61,35.16-6.46,48.62c-2.12,15.54-3,62.44-3,62.44l55.6,1,2.65-76.76s-4.93-27-9.69-50.21C281.89,183.44,268.16,149.91,268.16,149.91Z" style="fill:#1CBDE3"></path><path d="M300.15,148.84c.7,1.06,3,43.07,2.66,53-.29,9.3-2.62,29.6-2.62,29.6l-1.27,96,46.52.11S343.25,278,339.94,262s-2.7-26.45-2.7-26.45l-1.94-55.82L314,150Z" style="fill:#1CBDE3"></path><g style="opacity:0.30000000000000004"><path d="M274,256.78c3.6,5.35,10.11,8.11,16.52,8.8A46.77,46.77,0,0,0,310,263l.19-.06a51.55,51.55,0,0,0,26.27-20.22l.79-1.17,1.06-3.84Z"></path></g><path d="M278.9,239.79c.26-.08,8.51-4.25,10.57-4.44s18-.45,18-.45l3.75,15.57s-13.49,6-15.56,6.45-10.88,3.32-12.33,3.28-5.5-1.55-5.47-2.49a1.44,1.44,0,0,1,.64-1.26,29.24,29.24,0,0,0,5.56-.16,27.15,27.15,0,0,0,2.86-1.11s-14.67,1.72-15.69,1.37c-2.27-.77-1.71-2.54-1.71-2.54s-1.67-1.24-1.81-2.36.48-1.61,1.43-2,7.37-3,9.26-3.46,6.88-1.15,6.88-1.15-15.08,1.14-16,.68-1.9-2.11-.33-3a21.1,21.1,0,0,1,6.15-2.45C276.84,240.07,278.9,239.79,278.9,239.79Z" style="fill:#ffbf9d"></path><path d="M289.29,249.33a15.31,15.31,0,0,1-2.86,1.06c-1.79.57-4.3,1.27-7.1,1.88s-5.37,1-7.24,1.24a14.73,14.73,0,0,1-3,.22,22,22,0,0,1,3-.58c1.84-.32,4.39-.78,7.18-1.39s5.3-1.25,7.11-1.72A20.43,20.43,0,0,1,289.29,249.33Z" style="fill:#ff9a6c"></path><path d="M288.26,237.79a43.76,43.76,0,0,1-9.25,1.76,21.63,21.63,0,0,1,4.57-1.14A21.93,21.93,0,0,1,288.26,237.79Z" style="fill:#ff9a6c"></path><path d="M307.61,241.08s-.23,0-.61.06a5.56,5.56,0,0,0-1.54.55,4.86,4.86,0,0,1-2.49.71c-1-.09-2-.68-2.79,0a8.22,8.22,0,0,1-1.33.94,2.8,2.8,0,0,1-1.61.1,24.66,24.66,0,0,0-2.39-.69,2,2,0,0,0-1.48.37c-.29.24-.35.46-.39.44s0-.26.25-.59a2.1,2.1,0,0,1,1.66-.59,19,19,0,0,1,2.44.59,2.33,2.33,0,0,0,1.31-.1,8.12,8.12,0,0,0,1.25-.9,2.21,2.21,0,0,1,.83-.36,2.79,2.79,0,0,1,.87,0c.54.11,1,.28,1.43.33a5.13,5.13,0,0,0,2.29-.57,4.49,4.49,0,0,1,1.68-.42C307.41,241,307.62,241.05,307.61,241.08Z" style="fill:#ff9a6c"></path><path d="M307.66,244.24a3,3,0,0,1-1.72,1.09,4.87,4.87,0,0,1-2.26.15,4.69,4.69,0,0,0-1.21-.14,1.31,1.31,0,0,0-.94.64,2.16,2.16,0,0,1-1.23.89,3.21,3.21,0,0,1-1.38,0,10.7,10.7,0,0,0-2.1-.39,1.83,1.83,0,0,0-1.24.48c-.23.22-.29.41-.33.4s0-.22.18-.54a1.89,1.89,0,0,1,1.37-.7,8.84,8.84,0,0,1,2.2.28,2,2,0,0,0,2.13-.74,2.55,2.55,0,0,1,.54-.55,1.44,1.44,0,0,1,.76-.28,5.23,5.23,0,0,1,1.34.18,4.74,4.74,0,0,0,2.07,0A11.16,11.16,0,0,0,307.66,244.24Z" style="fill:#ff9a6c"></path><path d="M314,150s16.54,2.3,24.89,23c5.78,14.35,16.16,43.75,13.31,54.74-2.57,9.93-39.48,27.36-39.48,27.36l-6.33-22.48L329.05,216l-9.26-34.13Z" style="fill:#1CBDE3"></path><path d="M344.41,236.64a4.43,4.43,0,0,1-.53.47c-.36.29-.87.76-1.6,1.27-1.42,1.08-3.59,2.51-6.36,4.24-5.56,3.42-13.6,7.88-23.09,12.71l-.27.14-.08-.3c-1.19-4.34-2.47-9-3.8-13.91L306.17,232l-.05-.17.14-.11,20.68-14.86,0,0h0a38.82,38.82,0,0,1,6.69-.72,12.19,12.19,0,0,1,5,.93,8.14,8.14,0,0,1,2.62,1.86,7.75,7.75,0,0,1,.52.66.9.9,0,0,1,.16.23s-.26-.28-.76-.81a8.5,8.5,0,0,0-2.62-1.75,12.13,12.13,0,0,0-4.92-.82,40.07,40.07,0,0,0-6.63.79l.08,0-20.6,15,.1-.27c.82,3,1.66,6.08,2.52,9.24L313,255l-.35-.16c9.48-4.79,17.55-9.19,23.14-12.53,2.79-1.68,5-3.07,6.43-4.11.75-.49,1.27-.93,1.65-1.2A2.94,2.94,0,0,1,344.41,236.64Z" style="fill:#263238"></path><path d="M327.05,217c2.83-13.15-.92-27.41-7.94-38.89" style="fill:#1CBDE3"></path><path d="M319.11,178.14a8.71,8.71,0,0,1,.89,1.32c.56.87,1.29,2.17,2.13,3.82a58.43,58.43,0,0,1,2.61,5.93,59.6,59.6,0,0,1,2.26,7.6,55.41,55.41,0,0,1,1.12,7.86,44.22,44.22,0,0,1-.07,6.49c-.05.92-.19,1.75-.29,2.47s-.21,1.35-.32,1.85a10.08,10.08,0,0,1-.39,1.55,8.31,8.31,0,0,1,.19-1.58c.08-.51.17-1.13.23-1.86s.19-1.54.21-2.46a47.81,47.81,0,0,0,0-6.42,58.88,58.88,0,0,0-1.14-7.79,65.35,65.35,0,0,0-2.21-7.55c-.84-2.27-1.69-4.28-2.49-5.93s-1.47-3-2-3.88A10.56,10.56,0,0,1,319.11,178.14Z" style="fill:#263238"></path><path d="M322.4,184.23a14.61,14.61,0,0,1,.41-5.23,25.69,25.69,0,0,1,1.37-5.06,28.44,28.44,0,0,1-.85,5.16C322.73,181.91,322.53,184.23,322.4,184.23Z" style="fill:#263238"></path><path d="M275.28,240.57a3.26,3.26,0,0,1-1-.12c-.61-.11-1.49-.31-2.57-.59a63.51,63.51,0,0,1-16-6.6c-.95-.56-1.71-1-2.22-1.39a3.26,3.26,0,0,1-.77-.59c0-.06,1.22.62,3.17,1.66s4.69,2.4,7.8,3.69,6,2.24,8.12,2.88S275.29,240.5,275.28,240.57Z" style="fill:#263238"></path><path d="M258.46,151.49s-19.07,4.36-27,19.57c-6.05,11.6-19.1,46.59-19.36,53.57s17.75,32.45,17.75,32.45l20.43-12.93-11.74-21.79,12-27.75Z" style="fill:#1CBDE3"></path><path d="M248.61,471.62h0a2.49,2.49,0,0,1-2.49-2.49c0-2,.31-200.79.22-204-.19-6.86-4.36-10-4.54-10.12a2.51,2.51,0,0,1-.56-3.47,2.48,2.48,0,0,1,3.45-.59c.26.19,6.37,4.61,6.63,14,.09,3.28-.21,196-.22,204.15A2.49,2.49,0,0,1,248.61,471.62Z" style="fill:#ae7461"></path><path d="M234.49,279.91h0a2.49,2.49,0,0,1-2.48-2.5c0-7.38,0-18.61,0-19.27a2.45,2.45,0,0,1,2.3-2.62,2.53,2.53,0,0,1,2.67,2.34c0,.12,0,.47,0,19.56A2.49,2.49,0,0,1,234.49,279.91Z" style="fill:#ae7461"></path><path d="M238.33,244.55l-4.82,4.22c-.92.8-2,6.46-2.49,9.07a2.59,2.59,0,0,0,.73,2.3c1.62,1.63,4.92,4.73,6.58,4.9a6.13,6.13,0,0,0,4.07-1.28s2.26,1.28,3.61.15-1.88-8.44-1.88-8.44-1.29-3.44,2.14-3.21l1.55,2.55,3,6.31s2.92-.3,3.3-1.43-1-4.88-1-4.88a5.51,5.51,0,0,0,.67-4.46c-.82-2.18-2.18-6.18-6.17-7.08S238.33,244.55,238.33,244.55Z" style="fill:#ffbf9d"></path><path d="M242.17,262.85c-.07,0-.68-.75-1.79-1.91a29.06,29.06,0,0,0-4.82-4,4.32,4.32,0,0,1-1.32-1.37,2.76,2.76,0,0,1-.31-1.78,5.44,5.44,0,0,1,1.3-2.62c.52-.63,1-1.12,1.23-1.47s.42-.56.45-.54a7,7,0,0,1-1.39,2.23,5.54,5.54,0,0,0-1.12,2.46,2.3,2.3,0,0,0,.28,1.47,4.07,4.07,0,0,0,1.18,1.2,23.68,23.68,0,0,1,4.79,4.2A8.5,8.5,0,0,1,242.17,262.85Z" style="fill:#ff9a6c"></path><path d="M248.85,251c.11.1-.48.84-.74,1.93s-.09,2-.24,2.06-.57-.93-.26-2.18S248.77,250.88,248.85,251Z" style="fill:#ff9a6c"></path><polygon points="253.7 473.43 244.36 473.43 246.1 466 251.62 466 253.7 473.43" style="fill:#455a64"></polygon><path d="M239.15,223.06c-.08.06-.74-.91-2.12-2.16a16.13,16.13,0,0,0-2.64-1.92,18,18,0,0,0-3.66-1.58,17.68,17.68,0,0,0-3.93-.67,15.7,15.7,0,0,0-3.26.17c-1.84.29-2.93.76-3,.66s.24-.16.73-.37a6.34,6.34,0,0,1,.92-.33,9.65,9.65,0,0,1,1.24-.32,14.57,14.57,0,0,1,3.34-.29,17,17,0,0,1,4.07.65,17.2,17.2,0,0,1,3.75,1.66,14.46,14.46,0,0,1,2.65,2.07,10.3,10.3,0,0,1,.87.94,6,6,0,0,1,.58.78C239,222.79,239.18,223,239.15,223.06Z" style="fill:#263238"></path><path d="M239.15,221a6.85,6.85,0,0,1,.46-1.23L241,216.4c1.29-2.9,3-6.84,5.05-11.38l0,.07c.25-1.9.47-4,.65-6.08a108.07,108.07,0,0,0,.38-16.56c-.06-1.06-.2-2-.28-2.85s-.26-1.51-.36-2.12-.23-1-.32-1.33a1.7,1.7,0,0,1-.07-.48,2.7,2.7,0,0,1,.17.45l.42,1.31c.14.58.28,1.3.45,2.13s.27,1.79.36,2.86a95.45,95.45,0,0,1-.23,16.64c-.18,2.13-.41,4.18-.67,6.1v0l0,0c-2.08,4.5-3.88,8.42-5.21,11.3-.64,1.34-1.17,2.44-1.56,3.27A8.18,8.18,0,0,1,239.15,221Z" style="fill:#263238"></path><path d="M252.52,113.89a37.48,37.48,0,0,0-4.89,7.44,12.55,12.55,0,0,0-.89,8.69,7.64,7.64,0,0,0,6.33,5.52c-.4,3.28,2.47,6.31,5.7,7s6.6-.37,9.52-1.93c4.06,1.77,8.25,3.58,12.68,3.72s9.22-1.75,11.21-5.7c3.54,1.37,7.14,2.76,10.93,3s7.84-.69,10.46-3.44,3.26-7.48.77-10.35a7,7,0,0,0,8.1-9.53c-1.92-4.41-7.7-5.76-10.47-9.69" style="fill:#e0e0e0"></path><path d="M311.82,95.52a15.94,15.94,0,0,0-.39-15l-7.88,46.16a10,10,0,0,0,10.6-12.54c2.48-2.94,4.45-6.56,4.34-10.4S315.64,95.94,311.82,95.52Z" style="fill:#e0e0e0"></path><path d="M312.43,89.09c2-5.72-.75-12.42-5.64-16s-11.41-4.39-17.37-3.3c-4.7.85-9.64,3.25-11.28,7.74-3.46-1.72-9.55-1-12.81,1.11a11.48,11.48,0,0,0-5.18,9.8,15,15,0,0,0-6.72,24.84c-4.21,5-2.34,14.6,1.82,19.64s9.81,6,16.25,7c8.82,1.49,18.3.56,25.94-4.08a29.45,29.45,0,0,0,13.07-33.07c-.52-1.88-1.24-3.78-1.12-5.73C309.56,94.21,311.48,91.79,312.43,89.09Z" style="fill:#e0e0e0"></path><path d="M287.53,166.49A14.75,14.75,0,0,1,271.15,154l-6.86-47.76c-2.26-12.77,3.3-24.73,16.13-26.63l1.19-.11a23.18,23.18,0,0,1,24.91,19.19c1.9,11.08,3.84,23.35,4.3,29.35.95,12.41-11.28,15.44-11.28,15.44s.34,2.86.82,6.48a14.74,14.74,0,0,1-12.83,16.58Z" style="fill:#ffbf9d"></path><path d="M299.54,143.43A29.06,29.06,0,0,1,283,140.24s4.71,9,17,6.77Z" style="fill:#ff9a6c"></path><path d="M288.64,124.58a2.67,2.67,0,1,1,3.42,4,3.33,3.33,0,0,1-2.13.3,2.64,2.64,0,0,1-1.49-.69,2.42,2.42,0,0,1-.46-2.25,3.65,3.65,0,0,1,1-1.68" style="fill:#ff9a6c"></path><path d="M302.72,111.82a1.78,1.78,0,0,1-1.55,1.94,1.69,1.69,0,0,1-2-1.43,1.77,1.77,0,0,1,1.54-1.94A1.7,1.7,0,0,1,302.72,111.82Z" style="fill:#263238"></path><path d="M304.46,105c-.2.25-1.63-.63-3.54-.45s-3.21,1.25-3.44,1,.08-.53.65-1a4.89,4.89,0,0,1,2.73-1.11,4.63,4.63,0,0,1,2.83.65C304.32,104.46,304.55,104.86,304.46,105Z" style="fill:#263238"></path><path d="M286.41,113.53a1.76,1.76,0,0,1-1.55,1.93,1.69,1.69,0,0,1-2-1.43,1.77,1.77,0,0,1,1.54-1.94A1.71,1.71,0,0,1,286.41,113.53Z" style="fill:#263238"></path><path d="M286.17,107.06c-.2.25-1.63-.62-3.53-.45s-3.22,1.25-3.44,1,.07-.53.64-1a4.89,4.89,0,0,1,2.73-1.12,4.71,4.71,0,0,1,2.84.65C286,106.55,286.27,107,286.17,107.06Z" style="fill:#263238"></path><path d="M293.89,120.63a12.5,12.5,0,0,1,3.05-.83c.48-.09.93-.23,1-.57a2.43,2.43,0,0,0-.45-1.42l-1.77-3.57c-2.46-5.1-4.29-9.31-4.09-9.4s2.37,4,4.84,9c.6,1.26,1.17,2.45,1.71,3.6a2.82,2.82,0,0,1,.42,1.89,1.23,1.23,0,0,1-.73.78,3.79,3.79,0,0,1-.82.19A12.54,12.54,0,0,1,293.89,120.63Z" style="fill:#263238"></path><path d="M278.22,102.39c.15-.54,2.07-.45,4.29-.9s4-1.22,4.3-.78c.15.22-.12.73-.81,1.29a7.25,7.25,0,0,1-3.12,1.39,7.17,7.17,0,0,1-3.42-.12C278.61,103,278.16,102.64,278.22,102.39Z" style="fill:#e0e0e0"></path><path d="M295.64,99c.38-.4,1.65.18,3.22.35s2.94,0,3.21.47c.11.23-.14.64-.76,1a4.73,4.73,0,0,1-5.18-.66C295.62,99.65,295.48,99.19,295.64,99Z" style="fill:#e0e0e0"></path><path d="M266.13,115.43c-.22-.07-8.74-1.76-7.71,6.69s9.29,5.68,9.28,5.43S266.13,115.43,266.13,115.43Z" style="fill:#ffbf9d"></path><path d="M264.73,124.66s-.14.12-.37.27a1.45,1.45,0,0,1-1.1.15c-.93-.22-1.86-1.54-2.08-3.06a4.81,4.81,0,0,1,.16-2.16,1.69,1.69,0,0,1,1-1.26.74.74,0,0,1,.91.3c.15.22.11.39.16.4s.16-.16.05-.5a1,1,0,0,0-.39-.49,1.13,1.13,0,0,0-.84-.12,2.1,2.1,0,0,0-1.38,1.5,5,5,0,0,0-.23,2.42c.26,1.69,1.33,3.18,2.59,3.39a1.59,1.59,0,0,0,1.32-.39C264.74,124.87,264.76,124.67,264.73,124.66Z" style="fill:#ff9a6c"></path><path d="M295.16,126.59c-.12.28-1.88-.32-4.11-.39s-4,.34-4.12,0,1.7-1.21,4.17-1.09S295.3,126.36,295.16,126.59Z" style="fill:#263238"></path><path d="M285.22,127.44c0,.06-.25.06-.55-.12a1.78,1.78,0,0,1-.8-1.11,1.76,1.76,0,0,1,.24-1.34c.19-.29.4-.39.45-.34s-.37.74-.18,1.57S285.28,127.31,285.22,127.44Z" style="fill:#ff9a6c"></path><path d="M280.3,113.62c0,.13-.62.46-1.51.41s-1.52-.45-1.46-.57.7,0,1.49.05S280.25,113.48,280.3,113.62Z" style="fill:#ff9a6c"></path><path d="M280.8,114.31c0,.15-.55.28-1.16.59s-1.05.67-1.17.57.22-.67.94-1S280.81,114.17,280.8,114.31Z" style="fill:#ff9a6c"></path><path d="M307.28,109.73c.12.09-.15.6-.77.86s-1.18.11-1.16,0,.46-.23.95-.45S307.17,109.64,307.28,109.73Z" style="fill:#ff9a6c"></path><path d="M307.55,111.58c0,.14-.48.3-1.1.26s-1.08-.25-1.06-.39.52-.16,1.09-.13S307.54,111.44,307.55,111.58Z" style="fill:#ff9a6c"></path><path d="M284.2,128.09c-.05.13-.71-.06-1.05-.76s-.1-1.35,0-1.3.17.54.44,1.07S284.26,128,284.2,128.09Z" style="fill:#ff9a6c"></path><path d="M277.46,149.35a3.3,3.3,0,0,0,.14-1.9,2.14,2.14,0,0,0-.42-.82,4.56,4.56,0,0,0-.86-.7,2.13,2.13,0,0,1-.91-1.12,2,2,0,0,1,.38-1.49,2.21,2.21,0,0,0,.45-1.14,1.37,1.37,0,0,0-.55-.91,11.15,11.15,0,0,1-.89-.79,1.72,1.72,0,0,1-.51-1,2,2,0,0,1,.61-1.43c.25-.26.41-.37.44-.35s-.09.19-.28.47a2,2,0,0,0-.4,1.27c.07.55.67.95,1.34,1.48a1.82,1.82,0,0,1,.75,1.24,2.57,2.57,0,0,1-.51,1.43,1.55,1.55,0,0,0-.33,1.11,1.62,1.62,0,0,0,.7.85,5,5,0,0,1,.91.82,2.48,2.48,0,0,1,.44,1,2.44,2.44,0,0,1-.16,1.53C277.64,149.23,277.48,149.36,277.46,149.35Z" style="fill:#ff9a6c"></path><path d="M280.87,148.85a3.59,3.59,0,0,0-.38-1.5c-.22-.43-.56-.91-.88-1.51a3.09,3.09,0,0,1-.37-1.06,2.14,2.14,0,0,1,.2-1.22c.17-.36.29-.63.2-.88a1.49,1.49,0,0,0-.57-.65,5.49,5.49,0,0,1-.75-.62,1.53,1.53,0,0,1-.4-.83,1.61,1.61,0,0,1,.29-1.23c.19-.24.35-.3.37-.27s-.08.14-.2.38a1.64,1.64,0,0,0-.1,1c.08.46.5.76,1.07,1.13a1.87,1.87,0,0,1,.78.89,1.63,1.63,0,0,1-.22,1.25,2,2,0,0,0,.13,1.84c.27.58.59,1.1.78,1.58a2.19,2.19,0,0,1,.21,1.22C281,148.72,280.89,148.86,280.87,148.85Z" style="fill:#ff9a6c"></path><path d="M288.38,101.63c-.08-.12.43-.6.48-1.41s-.33-1.36-.23-1.47.24,0,.43.3a1.87,1.87,0,0,1-.2,2.36C288.63,101.64,288.42,101.69,288.38,101.63Z" style="fill:#ff9a6c"></path><path d="M293.42,100.84c0,.07-.21.08-.47,0a1.69,1.69,0,0,1-.76-.83,1.64,1.64,0,0,1-.1-1.13c.08-.28.22-.41.28-.38s0,.65.29,1.3S293.47,100.7,293.42,100.84Z" style="fill:#ff9a6c"></path><path d="M286.42,116.83c0,.15-.83.28-1.81.53s-1.77.53-1.84.4.66-.64,1.71-.9S286.42,116.69,286.42,116.83Z" style="fill:#ff9a6c"></path><path d="M304.94,114.82c0,.14-.75.08-1.6.16s-1.54.26-1.6.12.61-.56,1.56-.64S305,114.68,304.94,114.82Z" style="fill:#ff9a6c"></path><path d="M307.56,91.89c-1.29-4.2-4.79-7.48-8.8-9.27s-9.72-4.2-14.11-4.06a33.21,33.21,0,0,0-13.53,3.75c-4.75,2.63-7.95,8.41-9.58,13.59s.63,10.84,1.55,16.19l1.37,5.12c.62,1.72,3.14,2,4.64.94s2.19-2.88,2.75-4.62c2.64-8.06,4.41-16.58,3.36-25a44.69,44.69,0,0,0,13.14,5.9,6.77,6.77,0,0,0,3.36.26,2.56,2.56,0,0,0,2.05-2.39,21.81,21.81,0,0,0,6.79,5.51c1.62.84,3.61,1.46,5.24.64a4.17,4.17,0,0,0,2.07-2.92A7.44,7.44,0,0,0,307.56,91.89Z" style="fill:#e0e0e0"></path><path d="M250,105.77c0-.11,1.81.06,4.66-.41a23,23,0,0,0,4.85-1.36,27.7,27.7,0,0,0,5.41-3,26,26,0,0,0,7.53-8.21c1.45-2.49,2-4.23,2.07-4.19a4.86,4.86,0,0,1-.34,1.22A21.65,21.65,0,0,1,272.73,93a24.77,24.77,0,0,1-7.56,8.46,26.78,26.78,0,0,1-5.53,3,22.23,22.23,0,0,1-5,1.28,19.67,19.67,0,0,1-3.45.17A5.66,5.66,0,0,1,250,105.77Z" style="fill:#fff"></path><path d="M251.22,109.59c0-.11,1.73-.17,4.42-.81a29.38,29.38,0,0,0,4.6-1.53,29.39,29.39,0,0,0,9.71-6.72A28.67,28.67,0,0,0,273,96.76c1.55-2.29,2.22-3.89,2.32-3.84a5.72,5.72,0,0,1-.43,1.13,10.59,10.59,0,0,1-.63,1.28,17.73,17.73,0,0,1-.95,1.64,26.84,26.84,0,0,1-3,3.89,28.13,28.13,0,0,1-9.87,6.83,26.79,26.79,0,0,1-4.71,1.45,17.54,17.54,0,0,1-1.86.31,12.49,12.49,0,0,1-1.42.14A5.48,5.48,0,0,1,251.22,109.59Z" style="fill:#fff"></path><path d="M303.86,97.17s.31,0,.86-.16a4.25,4.25,0,0,0,2.07-1.23,3.76,3.76,0,0,0,1-3.43,4.08,4.08,0,0,0-3.28-3.06l-.3,0,.12-.28A9.79,9.79,0,0,0,302.4,78.9,12.53,12.53,0,0,0,294.6,75a16.29,16.29,0,0,0-7.22.82A23.05,23.05,0,0,0,282.89,78c-1,.61-1.54,1-1.56,1a2,2,0,0,1,.35-.32,13.08,13.08,0,0,1,1.11-.8,20.11,20.11,0,0,1,4.47-2.29,16,16,0,0,1,7.4-.95,12.87,12.87,0,0,1,8.13,4,10.18,10.18,0,0,1,1.94,10.6l-.18-.32a4.46,4.46,0,0,1,3.59,3.43A4,4,0,0,1,307,96a4.22,4.22,0,0,1-2.23,1.18,2.9,2.9,0,0,1-.66,0A.72.72,0,0,1,303.86,97.17Z" style="fill:#fff"></path></g></svg>